<?xml version="1.0" encoding="UTF-8" standalone="no"?>
<svg width="51px" height="12px" viewBox="0 0 51 12" version="1.1" xmlns="http://www.w3.org/2000/svg" xmlns:xlink="http://www.w3.org/1999/xlink">
    <!-- Generator: Sketch 48.2 (47327) - http://www.bohemiancoding.com/sketch -->
    <title>Combined Shape</title>
    <desc>Created with Sketch.</desc>
    <defs>
        <linearGradient x1="85.8611474%" y1="100%" x2="52.5745992%" y2="40.3223503%" id="linearGradient-1">
            <stop stop-color="#988CFF" offset="0%"></stop>
            <stop stop-color="#5E53FF" offset="100%"></stop>
        </linearGradient>
    </defs>
    <g id="Home-Page---1440px" stroke="none" stroke-width="1" fill="none" fill-rule="evenodd" transform="translate(-694.000000, -1054.000000)" opacity="0.256057518">
        <g id="Group-11" transform="translate(79.000000, 672.000000)" fill="url(#linearGradient-1)">
            <g id="Group-9" transform="translate(201.000000, 250.000000)">
                <g id="Group-4" transform="translate(414.000000, 132.000000)">
                    <path d="M6,12 C2.6862915,12 0,9.3137085 0,6 C0,2.6862915 2.6862915,0 6,0 C9.3137085,0 12,2.6862915 12,6 C12,9.3137085 9.3137085,12 6,12 Z M25.5,12 C22.1862915,12 19.5,9.3137085 19.5,6 C19.5,2.6862915 22.1862915,0 25.5,0 C28.8137085,0 31.5,2.6862915 31.5,6 C31.5,9.3137085 28.8137085,12 25.5,12 Z M45,12 C41.6862915,12 39,9.3137085 39,6 C39,2.6862915 41.6862915,0 45,0 C48.3137085,0 51,2.6862915 51,6 C51,9.3137085 48.3137085,12 45,12 Z" id="Combined-Shape"></path>
                </g>
            </g>
        </g>
    </g>
</svg>