<?xml version="1.0" encoding="UTF-8" standalone="no"?>
<svg width="61px" height="20px" viewBox="0 0 61 20" version="1.1" xmlns="http://www.w3.org/2000/svg" xmlns:xlink="http://www.w3.org/1999/xlink">
    <!-- Generator: Sketch 48.2 (47327) - http://www.bohemiancoding.com/sketch -->
    <title>enedis copy 2</title>
    <desc>Created with Sketch.</desc>
    <defs>
        <polygon id="path-1" points="0.185929803 0.0954954955 5.59834637 0.0954954955 5.59834637 3.23243243 0.185929803 3.23243243"></polygon>
    </defs>
    <g id="Home-Page---1440px" stroke="none" stroke-width="1" fill="none" fill-rule="evenodd" transform="translate(-477.000000, -514.000000)">
        <g id="Group-2" transform="translate(202.000000, 508.000000)">
            <g id="enedis-copy-2" transform="translate(275.000000, 6.000000)">
                <path d="M27.9076951,10.6096226 C26.5978626,10.6096226 25.5322536,9.60905871 25.5322536,8.36401029 L25.5371708,7.95674558 L30.6029628,7.95674558 C32.3559624,7.95674558 33.7817601,6.60150106 33.7817601,4.93536104 L33.7817601,3.02117504 C33.7817601,1.35503503 32.3559624,0 30.6029628,0 L26.1827648,0 C25.937312,0 25.6889909,0.00230448134 25.4447675,0.0574025353 C24.0074963,0.383591395 23.0090896,1.61732691 23.0090896,3.02117504 L23.0090896,4.13235405 C23.0090896,4.38668499 23.1910279,4.59387881 23.4149676,4.59387881 L25.1306781,4.59387881 C25.3546179,4.59387881 25.536761,4.38668499 25.536761,4.13235405 L25.536761,3.41503185 C25.536761,2.83535005 26.0420085,2.36355987 26.6632211,2.36355987 L30.1290628,2.36355987 C30.7500705,2.36355987 31.255318,2.83535005 31.255318,3.41503185 L31.255318,4.55135065 C31.255318,5.13061346 30.7500705,5.60177515 30.1290628,5.60177515 L21.5603448,5.60177515 L21.5603448,7.95674558 L23.0031479,7.95674558 L23.0031479,8.36359129 C23.0031479,10.9136046 25.2134519,12.972973 27.9163003,12.972973 L35.2327586,12.972973 L35.2327586,10.6092036 L27.9076951,10.6096226" id="Fill-1" fill="#ABE246"></path>
                <path d="M16.9101809,2.36552175 C18.1529072,2.36552175 19.1639222,3.37910728 19.1639222,4.62482443 L19.1639222,12.5579434 C19.1639222,12.787142 19.3559782,12.972973 19.5917715,12.972973 L21.1323011,12.972973 C21.3684833,12.972973 21.5603448,12.787142 21.5603448,12.5579434 L21.5603448,4.62482443 C21.5603448,2.0743097 19.4743608,0 16.9101809,0 L11.9546325,0 C11.7419714,0 11.5689655,0.20699101 11.5689655,0.46195868 L11.5689655,12.5118523 C11.5689655,12.7661915 11.7419714,12.972973 11.9546325,12.972973 L13.582637,12.972973 C13.7952981,12.972973 13.9684983,12.7661915 13.9684983,12.5118523 L13.9684983,2.36426472 L16.9101809,2.36552175" id="Fill-2" fill="#FFFFFF"></path>
                <path d="M3.25581455,2.3643215 L9.57188873,2.3643215 C9.80301676,2.3643215 9.99137931,2.18185437 9.99137931,1.95748893 L9.99137931,0.408299007 C9.99137931,0.183305096 9.81195864,0 9.57188873,0 L3.21188273,0 C1.44080825,0 0,1.42873229 0,3.18846121 L0,9.78430228 C0,11.5436122 1.44080825,12.972973 3.21188273,12.972973 L9.57188873,12.972973 C9.80301676,12.972973 9.99137931,12.7900869 9.99137931,12.5655119 L9.99137931,11.0165315 C9.99137931,10.7921661 9.80301676,10.6096989 9.57188873,10.6096989 L3.25581455,10.6096989 C2.79122581,10.6096989 2.39856085,10.212922 2.39856085,9.74345143 L2.39856085,7.93344454 L6.17592,7.93344454 C6.40704804,7.93344454 6.5952162,7.75055843 6.5952162,7.52619299 L6.5952162,6.00989324 C6.5952162,5.78489933 6.40704804,5.60201321 6.17592,5.60201321 L2.39856085,5.60201321 L2.39856085,3.23098799 C2.39856085,2.76109847 2.79122581,2.3643215 3.25581455,2.3643215" id="Fill-3" fill="#FFFFFF"></path>
                <path d="M60.4741379,8.50296573 C60.4741379,8.38584672 60.4733688,8.26558499 60.462793,8.13526652 C60.3456908,6.69422083 58.9827668,5.6022275 57.5458125,5.6022275 L53.9817892,5.6022275 L53.8904533,5.60180847 C53.3195558,5.60180847 52.8555694,5.05057392 52.8555694,4.37383975 L52.8590305,3.49282825 C52.8590305,2.87119659 53.3647431,2.36521733 53.9862118,2.36521733 L55.3925925,2.36521733 L55.4064371,2.36563636 L58.9606538,2.36563636 C59.1423642,2.36563636 59.3035,2.25040299 59.3611858,2.07860051 C59.3763764,2.03292619 59.3838756,1.99081363 59.3838756,1.95016768 L59.3838756,0.414840138 C59.3838756,0.185630486 59.1938969,0 58.9606538,0 L53.4160834,0.000838060884 C51.8093406,0.000838060884 50.4829509,1.32204104 50.4829509,2.94536498 L50.4831432,4.78218492 C50.4831432,6.53289411 51.6958918,7.9573881 53.1864938,7.9573881 L57.0718272,7.9573881 C57.6423402,7.9573881 58.1015194,8.50841313 58.1015194,9.18577584 L58.1015194,9.48014472 C58.1015194,10.1017764 57.6011909,10.6073366 56.9799145,10.6073366 L50.906365,10.6073366 C50.7244623,10.6073366 50.5635188,10.722151 50.5064098,10.8929059 C50.4902578,10.9396278 50.4827586,10.9821593 50.4827586,11.0221767 L50.4827586,12.5577138 C50.4827586,12.7869235 50.6727373,12.972973 50.906365,12.972973 L55.8775381,12.972973 L57.5638874,12.9721349 C59.1702457,12.9721349 60.4741379,11.6509319 60.4741379,10.0263509 L60.4741379,8.50296573" id="Fill-4" fill="#FFFFFF"></path>
                <path d="M40.8420359,0 L35.6182312,0 C35.4057645,0 35.2327586,0.207602762 35.2327586,0.462549846 L35.2327586,8.0912705 C35.2327586,8.34600809 35.4051813,8.5527729 35.617648,8.5527729 L37.2437086,8.5527729 C37.4561754,8.5527729 37.6289868,8.34600809 37.6289868,8.0912705 L37.6313195,2.36344536 L40.5735852,2.36449281 C41.8165059,2.36449281 42.827521,3.37820599 42.827521,4.62403204 L42.827521,8.78991349 C42.827521,10.0353206 41.8165059,10.6036619 40.5735852,10.6036619 L35.2327586,10.6097371 L35.2327586,12.972973 L40.5735852,12.9692022 C43.1377652,12.9692022 45.2241379,11.3395938 45.2241379,8.78991349 L45.2241379,4.59700807 C45.2241379,2.15039591 43.3193241,0 40.8420359,0" id="Fill-5" fill="#FFFFFF"></path>
                <path d="M49.4310345,8.10800189 L49.4269832,3.7108124 C49.4269832,3.45291647 49.2374238,3.24324324 49.0043659,3.24324324 L47.2243414,3.24324324 C46.9914968,3.24324324 46.8017241,3.45291647 46.8017241,3.7108124 L46.8017241,8.10800189 L46.8057755,12.5054038 C46.8057755,12.7632998 46.9953349,12.972973 47.2283927,12.972973 L49.0084172,12.972973 C49.2412619,12.972973 49.4310345,12.7632998 49.4310345,12.5054038 L49.4310345,8.10800189" id="Fill-6" fill="#FFFFFF"></path>
                <path d="M49.4310345,1.12624586 L49.4269832,0.527082106 C49.4269832,0.236360763 49.2374238,0 49.0043659,0 L47.2243414,0 C46.9914968,0 46.8017241,0.236360763 46.8017241,0.527082106 L46.8017241,1.12624586 L46.8057755,2.1756206 C46.8057755,2.46658141 46.9953349,2.7027027 47.2283927,2.7027027 L49.0084172,2.7027027 C49.2412619,2.7027027 49.4310345,2.46658141 49.4310345,2.1756206 L49.4310345,1.12624586" id="Fill-7" fill="#FFFFFF"></path>
                <path d="M0,19.8180015 L0,16.9344039 C0,16.874999 0.0322779787,16.8307291 0.096833936,16.8012158 C0.161190647,16.7717026 0.239494632,16.7567568 0.330948905,16.7567568 C0.422801671,16.7567568 0.500707163,16.7717026 0.56526312,16.8012158 C0.629819077,16.8307291 0.662097056,16.874999 0.662097056,16.9344039 L0.662097056,19.4941123 L1.90479923,19.4941123 C1.965968,19.4941123 2.01418572,19.5194635 2.04985089,19.569409 C2.08551607,19.6199221 2.10344828,19.6789486 2.10344828,19.7470562 C2.10344828,19.8151637 2.08551607,19.8741902 2.04985089,19.9245141 C2.01418572,19.9746489 1.965968,20 1.90479923,20 L0.290302561,20 C0.212197823,20 0.14425467,19.9835407 0.0864731033,19.9511896 C0.0288907834,19.9186493 0,19.8741902 0,19.8180015" id="Fill-8" fill="#FFFFFF"></path>
                <path d="M3.68103448,19.8180015 L3.68103448,16.9385661 C3.68103448,16.8825665 3.7138867,16.8381074 3.77959114,16.8057563 C3.84506901,16.7730269 3.92232837,16.7567568 4.01114264,16.7567568 L6.07290258,16.7567568 C6.14993537,16.7567568 6.20906937,16.7819187 6.24962486,16.8320534 C6.2899538,16.8825665 6.31034483,16.9402687 6.31034483,17.0053493 C6.31034483,17.0762946 6.28904753,17.1368347 6.24667949,17.1871586 C6.20408489,17.2374825 6.14608373,17.2624552 6.07290258,17.2624552 L4.43391671,17.2624552 L4.43391671,18.1499343 L5.31412961,18.1499343 C5.38753733,18.1499343 5.44531192,18.172826 5.48790652,18.2186094 C5.53050112,18.264582 5.55157186,18.3183113 5.55157186,18.380554 C5.55157186,18.4369319 5.53140739,18.4878234 5.49085189,18.5336068 C5.45029639,18.5795794 5.39138897,18.6024711 5.31412961,18.6024711 L4.43391671,18.6024711 L4.43391671,19.4941123 L6.07290258,19.4941123 C6.14608373,19.4941123 6.20408489,19.5194635 6.24667949,19.569409 C6.28904753,19.6199221 6.31034483,19.6806513 6.31034483,19.7514075 C6.31034483,19.8166772 6.2899538,19.8741902 6.24962486,19.9245141 C6.20906937,19.9746489 6.14993537,20 6.07290258,20 L4.01114264,20 C3.92232837,20 3.84506901,19.9835407 3.77959114,19.9511896 C3.7138867,19.9186493 3.68103448,19.8741902 3.68103448,19.8180015" id="Fill-9" fill="#FFFFFF"></path>
                <path d="M6.8362069,19.8180015 L6.8362069,16.9344039 C6.8362069,16.874999 6.86828867,16.8307291 6.93285074,16.8012158 C6.99741281,16.7717026 7.07552495,16.7567568 7.16718715,16.7567568 C7.25884936,16.7567568 7.33696149,16.7717026 7.40152357,16.8012158 C7.46588637,16.8307291 7.49836667,16.874999 7.49836667,16.9344039 L7.49836667,19.4941123 L8.74098731,19.4941123 C8.80216187,19.4941123 8.85058342,19.5194635 8.88625198,19.569409 C8.92192053,19.6199221 8.93965517,19.6789486 8.93965517,19.7470562 C8.93965517,19.8151637 8.92192053,19.8741902 8.88625198,19.9245141 C8.85058342,19.9746489 8.80216187,20 8.74098731,20 L7.12653696,20 C7.04822556,20 6.98047523,19.9835407 6.92268819,19.9511896 C6.86490115,19.9186493 6.8362069,19.8741902 6.8362069,19.8180015" id="Fill-10" fill="#FFFFFF"></path>
                <path d="M9.46551724,19.8180015 L9.46551724,16.9385661 C9.46551724,16.8825665 9.49836946,16.8381074 9.5640739,16.8057563 C9.62955177,16.7730269 9.70681112,16.7567568 9.7956254,16.7567568 L11.8573853,16.7567568 C11.9344181,16.7567568 11.9935521,16.7819187 12.0341076,16.8320534 C12.0744366,16.8825665 12.0948276,16.9402687 12.0948276,17.0053493 C12.0948276,17.0762946 12.0735303,17.1368347 12.0311623,17.1871586 C11.9885677,17.2374825 11.9305665,17.2624552 11.8573853,17.2624552 L10.2183995,17.2624552 L10.2183995,18.1499343 L11.0986124,18.1499343 C11.1720201,18.1499343 11.2297947,18.172826 11.2723893,18.2186094 C11.3147573,18.264582 11.3360546,18.3183113 11.3360546,18.380554 C11.3360546,18.4369319 11.3158901,18.4878234 11.2753347,18.5336068 C11.2347792,18.5795794 11.1758717,18.6024711 11.0986124,18.6024711 L10.2183995,18.6024711 L10.2183995,19.4941123 L11.8573853,19.4941123 C11.9305665,19.4941123 11.9885677,19.5194635 12.0311623,19.569409 C12.0735303,19.6199221 12.0948276,19.6806513 12.0948276,19.7514075 C12.0948276,19.8166772 12.0744366,19.8741902 12.0341076,19.9245141 C11.9935521,19.9746489 11.9344181,20 11.8573853,20 L9.7956254,20 C9.70681112,20 9.62955177,19.9835407 9.5640739,19.9511896 C9.49836946,19.9186493 9.46551724,19.8741902 9.46551724,19.8180015" id="Fill-11" fill="#FFFFFF"></path>
                <path d="M12.6206897,18.9922921 L12.6206897,17.7646523 C12.6206897,17.4184287 12.7402237,17.1639683 12.9795111,17.0008961 C13.2185792,16.8381991 13.5306837,16.7567568 13.9156053,16.7567568 C14.3082033,16.7567568 14.6286423,16.8331324 14.8771415,16.985696 C15.1256407,17.1382596 15.25,17.3407395 15.25,17.5929479 C15.25,17.7016002 15.2219259,17.7755363 15.1659972,17.8153192 C15.1098491,17.8547268 15.0164151,17.8744306 14.885476,17.8744306 C14.6464079,17.8744306 14.5248999,17.8145686 14.5211713,17.694094 C14.5174427,17.656 14.5126175,17.6229727 14.5071343,17.5951998 C14.5016511,17.5672392 14.4865174,17.5306464 14.4623913,17.4852339 C14.4378265,17.4398214 14.4071205,17.4013521 14.3698346,17.3707643 C14.3323295,17.3398012 14.2761814,17.3133418 14.2016097,17.2915738 C14.1268186,17.2694305 14.0390872,17.2583589 13.9379768,17.2583589 C13.545598,17.2583589 13.3495183,17.4270608 13.3495183,17.7646523 L13.3495183,18.9922921 C13.3495183,19.329696 13.5493266,19.4983979 13.9493819,19.4983979 C14.0689159,19.4983979 14.1687104,19.4837608 14.2494233,19.4544866 C14.3294782,19.4252124 14.3876002,19.3831777 14.4229121,19.3289453 C14.4584434,19.274713 14.4827888,19.2261103 14.4959485,19.1838879 C14.5088889,19.1412902 14.5174427,19.0891221 14.5211713,19.0273836 C14.5323571,18.9072843 14.6518911,18.847047 14.8799928,18.847047 C15.0107126,18.847047 15.1050238,18.8667508 15.1631459,18.9065337 C15.2210486,18.9461289 15.25,19.0202527 15.25,19.1285297 C15.25,19.3927481 15.1256407,19.6040477 14.8771415,19.762241 C14.6286423,19.9208095 14.3062294,20 13.910122,20 C13.5249812,20 13.2139733,19.9187453 12.9766598,19.7558607 C12.7391271,19.5929761 12.6206897,19.3385157 12.6206897,18.9922921" id="Fill-12" fill="#FFFFFF"></path>
                <path d="M15.25,17.0074303 C15.25,16.9412147 15.2683312,16.8829449 15.30479,16.832621 C15.3410451,16.7819187 15.394002,16.7567568 15.4634571,16.7567568 L17.6656496,16.7567568 C17.7351046,16.7567568 17.7880615,16.7819187 17.8245203,16.832621 C17.8609791,16.8829449 17.8793103,16.9412147 17.8793103,17.0074303 C17.8793103,17.0768622 17.8601644,17.1366455 17.8220762,17.1869694 C17.7835806,17.2372933 17.7316421,17.2624552 17.6656496,17.2624552 L16.9055143,17.2624552 L16.9055143,19.8170556 C16.9055143,19.8738119 16.8717034,19.9180818 16.8040815,19.9510004 C16.7364596,19.9835407 16.6574316,20 16.5672012,20 C16.4735082,20 16.3936655,19.9835407 16.3278767,19.9510004 C16.2618843,19.9180818 16.228888,19.8738119 16.228888,19.8170556 L16.228888,17.2624552 L15.4634571,17.2624552 C15.3976683,17.2624552 15.3455261,17.23805 15.3072342,17.1890505 C15.269146,17.14024 15.25,17.0797 15.25,17.0074303" id="Fill-13" fill="#FFFFFF"></path>
                <path d="M19.6401651,18.1976971 L20.2402479,18.1976971 C20.6292775,18.1976971 20.8238989,18.0421026 20.8238989,17.7307257 C20.8238989,17.4163421 20.6292775,17.2590564 20.2402479,17.2590564 L19.6401651,17.2590564 L19.6401651,18.1976971 Z M18.9310345,19.7974265 L18.9310345,16.9332099 C18.9310345,16.8862309 18.9528014,16.8448894 18.9965485,16.8097491 C19.0400823,16.7744209 19.0947128,16.7567568 19.1602269,16.7567568 L20.2402479,16.7567568 C21.1019601,16.7567568 21.5330295,17.0639995 21.5330295,17.6777334 C21.5330295,17.9186417 21.4683691,18.112759 21.3392617,18.2595215 C21.2101542,18.4064718 21.0366594,18.5064432 20.8183505,18.5590597 L21.5330295,19.6299933 C21.5511686,19.6476574 21.5603448,19.6711469 21.5603448,19.7004618 C21.5603448,19.773937 21.5129699,19.8423384 21.4184333,19.9054782 C21.3236834,19.968618 21.2238119,20 21.1183919,20 C21.012972,20 20.9310261,19.9545243 20.8729811,19.8635729 L20.0983365,18.6471923 L19.6401651,18.6471923 L19.6401651,19.7974265 C19.6401651,19.8532376 19.6055942,19.8973978 19.5366657,19.9297194 C19.4675239,19.961853 19.3838708,19.9782017 19.2857065,19.9782017 C19.1909566,19.9782017 19.1083705,19.961853 19.0375214,19.9297194 C18.9666724,19.8973978 18.9310345,19.8532376 18.9310345,19.7974265 Z" id="Fill-14" fill="#FFFFFF"></path>
                <path d="M21.5603448,19.8180015 L21.5603448,16.9344039 C21.5603448,16.874999 21.5862982,16.8307291 21.6382048,16.8012158 C21.6899513,16.7717026 21.7529121,16.7567568 21.8264465,16.7567568 C21.9003014,16.7567568 21.963102,16.7717026 22.0150087,16.8012158 C22.0667551,16.8307291 22.0927085,16.874999 22.0927085,16.9344039 L22.0927085,19.8180015 C22.0927085,19.8741902 22.0661143,19.9186493 22.0127658,19.9511896 C21.9595775,19.9835407 21.8975779,20 21.8264465,20 C21.7529121,20 21.6899513,19.9835407 21.6382048,19.9511896 C21.5862982,19.9186493 21.5603448,19.8741902 21.5603448,19.8180015" id="Fill-15" fill="#FFFFFF"></path>
                <path d="M23.137931,18.9922921 L23.137931,17.7646523 C23.137931,17.4184287 23.2572458,17.1639683 23.4967525,17.0008961 C23.7356013,16.8381991 24.0479251,16.7567568 24.4328466,16.7567568 C24.8252254,16.7567568 25.1456643,16.8331324 25.3943829,16.985696 C25.6428821,17.1382596 25.7672414,17.3407395 25.7672414,17.5929479 C25.7672414,17.7016002 25.7391673,17.7755363 25.6830192,17.8153192 C25.6270905,17.8547268 25.5334372,17.8744306 25.4027174,17.8744306 C25.16343,17.8744306 25.041922,17.8145686 25.0384127,17.694094 C25.0346841,17.656 25.0298589,17.6229727 25.0243757,17.5951998 C25.0186731,17.5672392 25.0037588,17.5306464 24.9794133,17.4852339 C24.9550679,17.4398214 24.9243619,17.4013521 24.8868567,17.3707643 C24.8495708,17.3398012 24.7934227,17.3133418 24.718851,17.2915738 C24.6438407,17.2694305 24.5561093,17.2583589 24.4552181,17.2583589 C24.0628394,17.2583589 23.8665404,17.4270608 23.8665404,17.7646523 L23.8665404,18.9922921 C23.8665404,19.329696 24.066568,19.4983979 24.4664039,19.4983979 C24.5861573,19.4983979 24.6859518,19.4837608 24.7664453,19.4544866 C24.8467196,19.4252124 24.9046223,19.3831777 24.9401535,19.3289453 C24.9756847,19.274713 25.0000302,19.2261103 25.0129706,19.1838879 C25.0261303,19.1412902 25.0346841,19.0891221 25.0384127,19.0273836 C25.0493791,18.9072843 25.1691325,18.847047 25.3970148,18.847047 C25.5277346,18.847047 25.6222652,18.8667508 25.680168,18.9065337 C25.7380707,18.9461289 25.7672414,19.0202527 25.7672414,19.1285297 C25.7672414,19.3927481 25.6428821,19.6040477 25.3943829,19.762241 C25.1456643,19.9208095 24.8232514,20 24.4273634,20 C24.0422225,20 23.7309954,19.9187453 23.4936819,19.7558607 C23.2563684,19.5929761 23.137931,19.3385157 23.137931,18.9922921" id="Fill-16" fill="#FFFFFF"></path>
                <path d="M26.2931034,19.8180015 L26.2931034,16.9344039 C26.2931034,16.874999 26.3188966,16.8307291 26.3708032,16.8012158 C26.4227099,16.7717026 26.4855105,16.7567568 26.5592052,16.7567568 C26.6328998,16.7567568 26.6957004,16.7717026 26.7476071,16.8012158 C26.7995138,16.8307291 26.8254671,16.874999 26.8254671,16.9344039 L26.8254671,19.8180015 C26.8254671,19.8741902 26.7987127,19.9186493 26.7455244,19.9511896 C26.6923361,19.9835407 26.6301763,20 26.5592052,20 C26.4855105,20 26.4227099,19.9835407 26.3708032,19.9511896 C26.3188966,19.9186493 26.2931034,19.8741902 26.2931034,19.8180015" id="Fill-17" fill="#FFFFFF"></path>
                <path d="M27.8706897,17.0074303 C27.8706897,16.9412147 27.8888186,16.8829449 27.9252802,16.832621 C27.9617418,16.7819187 28.0147029,16.7567568 28.0841633,16.7567568 L30.2865264,16.7567568 C30.3559868,16.7567568 30.4089478,16.7819187 30.4454094,16.832621 C30.481871,16.8829449 30.5,16.9412147 30.5,17.0074303 C30.5,17.0768622 30.4808526,17.1366455 30.4427614,17.1869694 C30.4044665,17.2372933 30.3523203,17.2624552 30.2865264,17.2624552 L29.5263322,17.2624552 L29.5263322,19.8170556 C29.5263322,19.8738119 29.4925187,19.9180818 29.4248915,19.9510004 C29.3570607,19.9835407 29.2782303,20 29.1879929,20 C29.0940889,20 29.0144437,19.9835407 28.9484462,19.9510004 C28.8824486,19.9180818 28.8496535,19.8738119 28.8496535,19.8170556 L28.8496535,17.2624552 L28.0841633,17.2624552 C28.0181657,17.2624552 27.9662232,17.23805 27.9279283,17.1890505 C27.8896334,17.14024 27.8706897,17.0797 27.8706897,17.0074303" id="Fill-18" fill="#FFFFFF"></path>
                <path d="M31.0258621,19.8180015 L31.0258621,16.9385661 C31.0258621,16.8825665 31.0587143,16.8381074 31.1241922,16.8057563 C31.1898966,16.7730269 31.267156,16.7567568 31.3559702,16.7567568 L33.4175036,16.7567568 C33.494763,16.7567568 33.5536704,16.7819187 33.5942259,16.8320534 C33.6347814,16.8825665 33.6551724,16.9402687 33.6551724,17.0053493 C33.6551724,17.0762946 33.6338751,17.1368347 33.5915071,17.1871586 C33.5489125,17.2374825 33.4909113,17.2624552 33.4175036,17.2624552 L31.7787443,17.2624552 L31.7787443,18.1499343 L32.6589572,18.1499343 C32.7321383,18.1499343 32.7901395,18.172826 32.8327341,18.2186094 C32.8751021,18.264582 32.8963994,18.3183113 32.8963994,18.380554 C32.8963994,18.4369319 32.876235,18.4878234 32.8356795,18.5336068 C32.7948974,18.5795794 32.73599,18.6024711 32.6589572,18.6024711 L31.7787443,18.6024711 L31.7787443,19.4941123 L33.4175036,19.4941123 C33.4909113,19.4941123 33.5489125,19.5194635 33.5915071,19.569409 C33.6338751,19.6199221 33.6551724,19.6806513 33.6551724,19.7514075 C33.6551724,19.8166772 33.6347814,19.8741902 33.5942259,19.9245141 C33.5536704,19.9746489 33.494763,20 33.4175036,20 L31.3559702,20 C31.267156,20 31.1898966,19.9835407 31.1241922,19.9511896 C31.0587143,19.9186493 31.0258621,19.8741902 31.0258621,19.8180015" id="Fill-19" fill="#FFFFFF"></path>
                <path d="M35.7586207,19.8180015 L35.7586207,16.9385661 C35.7586207,16.8825665 35.7912492,16.8381074 35.8569593,16.8057563 C35.9226694,16.7730269 35.9997088,16.7567568 36.0887573,16.7567568 L38.1504683,16.7567568 C38.2277343,16.7567568 38.2866468,16.7819187 38.3272058,16.8320534 C38.3677648,16.8825665 38.387931,16.9402687 38.387931,17.0053493 C38.387931,17.0762946 38.3666319,17.1368347 38.3242602,17.1871586 C38.2818885,17.2374825 38.2236558,17.2624552 38.1504683,17.2624552 L36.5115678,17.2624552 L36.5115678,18.1499343 L37.3918566,18.1499343 C37.465044,18.1499343 37.5230502,18.172826 37.5656484,18.2186094 C37.6080201,18.264582 37.6293193,18.3183113 37.6293193,18.380554 C37.6293193,18.4369319 37.6089265,18.4878234 37.5683675,18.5336068 C37.5278085,18.5795794 37.468896,18.6024711 37.3918566,18.6024711 L36.5115678,18.6024711 L36.5115678,19.4941123 L38.1504683,19.4941123 C38.2236558,19.4941123 38.2818885,19.5194635 38.3242602,19.569409 C38.3666319,19.6199221 38.387931,19.6806513 38.387931,19.7514075 C38.387931,19.8166772 38.3677648,19.8741902 38.3272058,19.9245141 C38.2866468,19.9746489 38.2277343,20 38.1504683,20 L36.0887573,20 C35.9997088,20 35.9226694,19.9835407 35.8569593,19.9511896 C35.7912492,19.9186493 35.7586207,19.8741902 35.7586207,19.8180015" id="Fill-20" fill="#FFFFFF"></path>
                <path d="M38.387931,19.8180015 L38.387931,16.9385661 C38.387931,16.8795395 38.4222872,16.8345129 38.4909997,16.8032969 C38.5597121,16.7724593 38.6428456,16.7567568 38.7404003,16.7567568 C38.8706146,16.7567568 38.9698658,16.7760539 39.0383662,16.8146482 C39.1070786,16.8530533 39.1830016,16.9357282 39.2663472,17.0628623 L40.3123029,18.7178755 L40.3123029,16.9344039 C40.3123029,16.874999 40.3466591,16.8307291 40.4153715,16.8012158 C40.4838718,16.7717026 40.5672175,16.7567568 40.6647721,16.7567568 C40.7623268,16.7567568 40.8454603,16.7717026 40.9141728,16.8012158 C40.9826731,16.8307291 41.0172414,16.874999 41.0172414,16.9344039 L41.0172414,19.8180015 C41.0172414,19.8741902 40.9818248,19.9186493 40.9114158,19.9511896 C40.8410068,19.9835407 40.7587215,20 40.6647721,20 C40.4732681,20 40.3377519,19.9392708 40.2582237,19.8180015 L39.0928695,18.0345299 L39.0928695,19.8180015 C39.0928695,19.8741902 39.057453,19.9186493 38.9870439,19.9511896 C38.9164228,19.9835407 38.8343497,20 38.7404003,20 C38.6428456,20 38.5597121,19.9835407 38.4909997,19.9511896 C38.4222872,19.9186493 38.387931,19.8741902 38.387931,19.8180015" id="Fill-21" fill="#FFFFFF"></path>
                <path d="M43.8298778,18.1976971 L44.429796,18.1976971 C44.8188571,18.1976971 45.0134943,18.0421026 45.0134943,17.7307257 C45.0134943,17.4163421 44.8188571,17.2590564 44.429796,17.2590564 L43.8298778,17.2590564 L43.8298778,18.1976971 Z M43.1206897,19.7974265 L43.1206897,16.9332099 C43.1206897,16.8862309 43.1424583,16.8448894 43.1859956,16.8097491 C43.2297463,16.7744209 43.2841679,16.7567568 43.3496872,16.7567568 L44.429796,16.7567568 C45.291578,16.7567568 45.7226825,17.0639995 45.7226825,17.6777334 C45.7226825,17.9186417 45.6580168,18.112759 45.5288989,18.2595215 C45.3999944,18.4064718 45.2262721,18.5064432 45.0079454,18.5590597 L45.7226825,19.6299933 C45.740823,19.6476574 45.75,19.6711469 45.75,19.7004618 C45.75,19.773937 45.7026212,19.8423384 45.608077,19.9054782 C45.5135328,19.968618 45.4136532,20 45.3080112,20 C45.2025827,20 45.1206302,19.9545243 45.0625805,19.8635729 L44.2880864,18.6471923 L43.8298778,18.6471923 L43.8298778,19.7974265 C43.8298778,19.8532376 43.7950907,19.8973978 43.7261567,19.9297194 C43.6570092,19.961853 43.5733493,19.9782017 43.475177,19.9782017 C43.3806328,19.9782017 43.2978266,19.961853 43.2269718,19.9297194 C43.1561171,19.8973978 43.1206897,19.8532376 43.1206897,19.7974265 Z" id="Fill-22" fill="#FFFFFF"></path>
                <g id="Group-26" transform="translate(46.275862, 16.756757)">
                    <mask id="mask-2" fill="white">
                        <use xlink:href="#path-1"></use>
                    </mask>
                    <g id="Clip-24"></g>
                    <path d="M0.185929803,3.03207207 L0.185929803,0.28972973 C0.185929803,0.236396396 0.21588516,0.194054054 0.275589286,0.163243243 C0.3355,0.132072072 0.405946736,0.116576577 0.486929495,0.116576577 L2.36688639,0.116576577 C2.43712654,0.116576577 2.49104618,0.140540541 2.52781897,0.188288288 C2.56479834,0.236396396 2.58339132,0.291351351 2.58339132,0.353333333 C2.58339132,0.420900901 2.56397198,0.478558559 2.5253399,0.526486486 C2.48650123,0.574414414 2.43361453,0.598198198 2.36688639,0.598198198 L0.872423953,0.598198198 L0.872423953,1.44342342 L1.67502094,1.44342342 C1.74174908,1.44342342 1.79463578,1.46522523 1.83347445,1.50882883 C1.87210653,1.55261261 1.89152586,1.60378378 1.89152586,1.66306306 C1.89152586,1.71675676 1.87313947,1.76522523 1.8361601,1.80882883 C1.79897414,1.85261261 1.74526108,1.87441441 1.67502094,1.87441441 L0.872423953,1.87441441 L0.872423953,2.7236036 L2.36688639,2.7236036 C2.43361453,2.7236036 2.48650123,2.74774775 2.5253399,2.79531532 C2.56397198,2.84342342 2.58339132,2.90126126 2.58339132,2.96864865 C2.58339132,3.03081081 2.56479834,3.08558559 2.52781897,3.13351351 C2.49104618,3.18126126 2.43712654,3.20540541 2.36688639,3.20540541 L0.486929495,3.20540541 C0.405946736,3.20540541 0.3355,3.18972973 0.275589286,3.15891892 C0.21588516,3.12792793 0.185929803,3.08558559 0.185929803,3.03207207" id="Fill-23" fill="#FFFFFF" mask="url(#mask-2)"></path>
                    <path d="M3.12196798,2.71927928 C3.12196798,2.65459459 3.1525431,2.58900901 3.21431312,2.52288288 C3.27587654,2.45675676 3.34549692,2.4236036 3.42276108,2.4236036 C3.46862377,2.4236036 3.52047752,2.44126126 3.57873553,2.47621622 C3.63678695,2.51135135 3.69297906,2.55027027 3.74772506,2.59279279 C3.80205788,2.63495495 3.88056158,2.67387387 3.98261638,2.70900901 C4.08467118,2.74396396 4.19726201,2.76162162 4.32059544,2.76162162 C4.48958498,2.76162162 4.63027186,2.73081081 4.74306927,2.66864865 C4.8556601,2.60666667 4.91205881,2.51531532 4.91205881,2.39387387 C4.91205881,2.30954955 4.8810705,2.23423423 4.81950708,2.16792793 C4.75794366,2.10198198 4.6769609,2.04684685 4.57676539,2.00324324 C4.4763633,1.95963964 4.36625154,1.9172973 4.2466367,1.8763964 C4.12681527,1.83567568 4.00637408,1.78990991 3.88489994,1.7390991 C3.7634258,1.68828829 3.65248768,1.63153153 3.55229218,1.56792793 C3.45189009,1.50468468 3.37090733,1.42018018 3.3093439,1.31459459 C3.24778048,1.20882883 3.21679218,1.08828829 3.21679218,0.953333333 C3.21679218,0.801621622 3.2548045,0.667927928 3.33041595,0.552252252 C3.40623399,0.436576577 3.50725585,0.346486486 3.63410129,0.281981982 C3.76074015,0.217837838 3.89626232,0.17045045 4.0406678,0.140540541 C4.18507328,0.110630631 4.33815548,0.0954954955 4.500121,0.0954954955 C4.59163978,0.0954954955 4.68832328,0.100540541 4.79058467,0.110630631 C4.89263947,0.120900901 5.00089193,0.137477477 5.11534206,0.160720721 C5.22958559,0.183783784 5.32296367,0.21981982 5.39506312,0.269009009 C5.46736915,0.318378378 5.50352217,0.376216216 5.50352217,0.442702703 C5.50352217,0.505225225 5.47873153,0.57009009 5.42935683,0.637297297 C5.38018873,0.704324324 5.31346059,0.737657658 5.22896583,0.737657658 C5.19715117,0.737657658 5.11079711,0.710810811 4.97011022,0.657477477 C4.82921675,0.603963964 4.67262254,0.577297297 4.500121,0.577297297 C4.31005942,0.577297297 4.16296829,0.605945946 4.05926078,0.663783784 C3.95534667,0.721621622 3.90349292,0.801081081 3.90349292,0.902522523 C3.90349292,0.984144144 3.94563701,1.0554955 4.03013177,1.11603604 C4.11462654,1.17657658 4.219367,1.22576577 4.34435314,1.26378378 C4.46933929,1.3018018 4.60486145,1.34972973 4.75091964,1.40756757 C4.89697783,1.46522523 5.0325,1.52792793 5.15748615,1.59531532 C5.28247229,1.66306306 5.38721275,1.76108108 5.47170751,1.88918919 C5.55620228,2.01747748 5.59834637,2.16720721 5.59834637,2.3390991 C5.59834637,2.62792793 5.48306989,2.85099099 5.25251693,3.00792793 C5.02196398,3.16486486 4.71827863,3.24324324 4.34166749,3.24324324 C4.00720043,3.24324324 3.72024877,3.18846847 3.48101909,3.07855856 C3.24158282,2.96864865 3.12196798,2.84918919 3.12196798,2.71927928" id="Fill-25" fill="#FFFFFF" mask="url(#mask-2)"></path>
                </g>
                <path d="M52.5862069,19.8180015 L52.5862069,16.9385661 C52.5862069,16.8825665 52.6190591,16.8381074 52.6847636,16.8057563 C52.7502414,16.7730269 52.8275008,16.7567568 52.9163151,16.7567568 L54.978075,16.7567568 C55.0551078,16.7567568 55.1142418,16.7819187 55.1547973,16.8320534 C55.1951262,16.8825665 55.2155172,16.9402687 55.2155172,17.0053493 C55.2155172,17.0762946 55.1942199,17.1368347 55.1518519,17.1871586 C55.1092573,17.2374825 55.0512561,17.2624552 54.978075,17.2624552 L53.3390891,17.2624552 L53.3390891,18.1499343 L54.219302,18.1499343 C54.2927097,18.1499343 54.3504843,18.172826 54.3930789,18.2186094 C54.435447,18.264582 54.4567443,18.3183113 54.4567443,18.380554 C54.4567443,18.4369319 54.4365798,18.4878234 54.3960243,18.5336068 C54.3554688,18.5795794 54.2965614,18.6024711 54.219302,18.6024711 L53.3390891,18.6024711 L53.3390891,19.4941123 L54.978075,19.4941123 C55.0512561,19.4941123 55.1092573,19.5194635 55.1518519,19.569409 C55.1942199,19.6199221 55.2155172,19.6806513 55.2155172,19.7514075 C55.2155172,19.8166772 55.1951262,19.8741902 55.1547973,19.9245141 C55.1142418,19.9746489 55.0551078,20 54.978075,20 L52.9163151,20 C52.8275008,20 52.7502414,19.9835407 52.6847636,19.9511896 C52.6190591,19.9186493 52.5862069,19.8741902 52.5862069,19.8180015" id="Fill-27" fill="#FFFFFF"></path>
                <path d="M58.3706897,18.9922921 L58.3706897,16.9329649 C58.3706897,16.8740412 58.4054071,16.8301299 58.474842,16.8008557 C58.5440626,16.7715815 58.6282845,16.7567568 58.7266506,16.7567568 C58.8254453,16.7567568 58.9092386,16.7715815 58.9788878,16.8008557 C59.0481084,16.8301299 59.0828258,16.8740412 59.0828258,16.9329649 L59.0828258,18.9922921 C59.0828258,19.329696 59.2836298,19.4983979 59.6852377,19.4983979 C60.0870599,19.4983979 60.2880782,19.329696 60.2880782,18.9922921 L60.2880782,16.9329649 C60.2880782,16.8740412 60.3225813,16.8301299 60.3920162,16.8008557 C60.4614511,16.7715815 60.5454587,16.7567568 60.6440391,16.7567568 C60.7426195,16.7567568 60.8264128,16.7715815 60.8958477,16.8008557 C60.9652826,16.8301299 61,16.8740412 61,16.9329649 L61,18.9922921 C61,19.3385157 60.8804177,19.5929761 60.6412531,19.7558607 C60.4018742,19.9187453 60.0834167,20 59.6852377,20 C59.2872729,20 58.9686011,19.9193083 58.7294365,19.7581126 C58.4902719,19.5967292 58.3706897,19.3413306 58.3706897,18.9922921" id="Fill-28" fill="#FFFFFF"></path>
                <path d="M2.48446233,16.8319952 C2.48446233,16.8319952 2.59513217,16.7265285 2.75056425,16.7653323 C2.75056425,16.7653323 3.01803924,16.8146827 3.12074524,16.9004491 C3.12074524,16.9004491 3.18802591,16.9796487 3.13447599,17.0620321 L2.67037667,17.7662714 C2.67037667,17.7662714 2.58991448,17.8500478 2.40290168,17.8363173 C2.40290168,17.8363173 2.29717491,17.8397002 2.19913736,17.7698533 C2.19913736,17.7698533 2.0533168,17.6677695 2.12169594,17.5627007 L2.48446233,16.8319952" id="Fill-29" fill="#FFFFFF"></path>
                <path d="M55.5723472,18.8514295 L56.0043103,17.3363898 L56.4362735,18.8514295 L55.5723472,18.8514295 Z M56.5643015,19.3002746 L56.7314395,19.8859123 C56.7549406,19.9619082 56.8291267,20 56.9536471,20 C57.0513343,20 57.0969333,19.9756062 57.185676,19.9270064 C57.2745942,19.8782189 57.3189655,19.8181727 57.3189655,19.7459297 C57.3189655,19.7395498 57.315984,19.7237877 57.3100211,19.698831 L56.4571438,16.9738612 C56.4334674,16.9057463 56.38401,16.8524553 56.3173652,16.8138006 C56.2244134,16.7599467 56.0941054,16.7567568 56.0043103,16.7567568 C55.9145153,16.7567568 55.7842073,16.7599467 55.6912555,16.8138006 C55.6246107,16.8524553 55.5751533,16.9057463 55.5514769,16.9738612 L54.6985996,19.698831 C54.6926366,19.7237877 54.6896552,19.7395498 54.6896552,19.7459297 C54.6896552,19.8181727 54.7340265,19.8782189 54.8229447,19.9270064 C54.9116874,19.9756062 54.9572864,20 55.0549736,20 C55.179494,20 55.2536801,19.9619082 55.2771812,19.8859123 L55.4443192,19.3002746 L56.5643015,19.3002746 Z" id="Fill-30" fill="#FFFFFF"></path>
            </g>
        </g>
    </g>
</svg>