<?xml version="1.0" encoding="UTF-8" standalone="no"?>
<svg width="268px" height="221px" viewBox="0 0 268 221" version="1.1" xmlns="http://www.w3.org/2000/svg" xmlns:xlink="http://www.w3.org/1999/xlink">
    <!-- Generator: Sketch 48.2 (47327) - http://www.bohemiancoding.com/sketch -->
    <title>Group 16</title>
    <desc>Created with Sketch.</desc>
    <defs>
        <linearGradient x1="85.8611474%" y1="100%" x2="52.5745992%" y2="40.3223503%" id="linearGradient-1">
            <stop stop-color="#988CFF" offset="0%"></stop>
            <stop stop-color="#5E53FF" offset="100%"></stop>
        </linearGradient>
        <polygon id="path-2" points="0 0.27788925 7.11094695 0.27788925 7.11094695 7.04557573 0 7.04557573"></polygon>
        <polygon id="path-4" points="0.243964005 0.24745828 24.0714632 0.24745828 24.0714632 20.0893702 0.243964005 20.0893702"></polygon>
        <polygon id="path-6" points="0.294356189 0.0481261046 11.7037221 0.0481261046 11.7037221 15.225969 0.294356189 15.225969"></polygon>
        <polygon id="path-8" points="0 0.294409023 35.0358629 0.294409023 35.0358629 46.8796914 0 46.8796914"></polygon>
        <polygon id="path-10" points="0.13776441 0.121768735 17.8424982 0.121768735 17.8424982 11.6277837 0.13776441 11.6277837"></polygon>
        <polygon id="path-12" points="0.137799707 0.121930232 17.8425036 0.121930232 17.8425036 11.6277837 0.137799707 11.6277837"></polygon>
    </defs>
    <g id="Home-Page---1440px" stroke="none" stroke-width="1" fill="none" fill-rule="evenodd" transform="translate(-314.000000, -924.000000)">
        <g id="Group-11" transform="translate(79.000000, 674.000000)">
            <g id="Group-9" transform="translate(201.000000, 250.000000)">
                <g id="Group-16" transform="translate(34.000000, 0.000000)">
                    <g id="message6-copy" transform="translate(192.456376, 0.085556)">
                        <rect id="Rectangle-39" fill="#4F71FF" x="6.29530201" y="0" width="42" height="36.8333333" rx="7.2"></rect>
                        <path d="M0,31.138492 C3.96588549,29.5178236 6.73135683,27.2194384 8.29641402,24.2433362 C10.6439998,19.7791828 13.2382189,33.6881844 9.51090246,32.8221928 C7.02602485,32.244865 3.85572404,31.6836314 0,31.138492 Z" id="Path-2" fill="#4F71FF"></path>
                        <path d="M22.0363329,14.6966741 C22.0934618,11.8516546 24.0815478,9.88642022 27.5892626,9.88642022 C30.8570361,9.88642022 33.0165087,11.7031194 33.0165087,14.3424749 C33.0165087,16.0563421 32.1824267,17.2560491 30.5713915,18.204389 C29.0517626,19.0841741 28.6290087,19.6440374 28.6290087,20.7409124 L28.6290087,21.3464788 L25.6011767,21.3464788 L25.5783251,20.7180608 C25.42979,18.8899358 26.0582079,17.8616155 27.6349657,16.9361273 C29.1088915,16.0563421 29.554497,15.5079046 29.554497,14.4453069 C29.554497,13.3827093 28.6861376,12.6286077 27.3835986,12.6286077 C26.0696337,12.6286077 25.2012743,13.4398382 25.1327196,14.6966741 L22.0363329,14.6966741 Z M27.2350634,26.8651312 C25.9553759,26.8651312 25.1555712,26.1224554 25.1555712,24.9227483 C25.1555712,23.7116155 25.9553759,22.9689398 27.2350634,22.9689398 C28.5147509,22.9689398 29.3031298,23.7116155 29.3031298,24.9227483 C29.3031298,26.1224554 28.5147509,26.8651312 27.2350634,26.8651312 Z" id="?" fill="#FFFFFF"></path>
                    </g>
                    <ellipse id="Oval-3" fill="url(#linearGradient-1)" opacity="0.256057518" cx="134" cy="210.305068" rx="133.550336" ry="9.88211382"></ellipse>
                    <g id="grass-copy" transform="translate(53.060403, 189.556911)" fill-rule="nonzero">
                        <path d="M14.0234725,0.111613346 C11.0646997,2.98048321 9.204101,7.3241246 8.15567838,11.1029628 C9.32155479,15.3050969 9.58960218,18.8087291 9.58960218,18.8087291 L11.5343893,18.8087291 C11.5343893,9.50148391 13.5146595,3.35070829 14.6438813,0.599920029 C14.8158567,0.180936915 14.338719,-0.194055015 14.0234725,0.111613346 Z" id="Shape" fill="#8DCE55"></path>
                        <path d="M8.79041236,9.40436457 C8.55896369,9.92506904 8.34728848,10.4406781 8.15567838,10.9462353 C9.78089368,15.2338366 10.1546063,18.8087291 10.1546063,18.8087291 L11.4179497,18.8087291 C11.4178914,18.8084512 10.9508527,14.3408893 8.79041236,9.40436457 Z" id="Shape" fill="#6DC82A"></path>
                        <path d="M9.78681405,18.8087291 C9.78681405,18.8087291 10.5878197,9.33022809 15.7670591,4.78589128 C16.0283215,4.55664032 16.4237848,4.83788965 16.2812313,5.15212473 C15.3453715,7.21520013 13.7041172,11.8283031 13.7041172,18.8087291 L9.78681405,18.8087291 Z" id="Shape" fill="#8DCE55"></path>
                        <path d="M16.2812311,5.15212473 C16.4237856,4.83788965 16.0283194,4.55664032 15.7670552,4.78589128 C10.5878254,9.33022809 9.78681405,18.8087291 9.78681405,18.8087291 L10.9163306,18.8087291 C10.9163306,18.8087291 11.6342825,10.3144404 16.1048462,5.55303903 C16.1658343,5.41023822 16.2248626,5.27641687 16.2812311,5.15212473 Z" id="Shape" fill="#6DC82A"></path>
                        <path d="M13.0490854,18.8087291 C13.0490854,18.8087291 13.6498528,12.4897204 17.5342601,9.46015257 C17.7302118,9.30735642 18.0268272,9.49483297 17.9198917,9.70429525 C17.2179863,11.0796906 15.987043,14.1550697 15.987043,18.8087291 L13.0490854,18.8087291 Z" id="Shape" fill="#8DCE55"></path>
                        <path d="M17.9198917,9.70432063 C18.0268272,9.49481294 17.7302118,9.3073369 17.5342601,9.46017862 C13.6498528,12.489738 13.0490854,18.8087291 13.0490854,18.8087291 L14.1350414,18.8087291 C14.1350414,18.8087291 14.6250787,13.6585656 17.5786365,10.4281456 C17.7001708,10.1501512 17.8159077,9.90812493 17.9198917,9.70432063 Z" id="Shape" fill="#6DC82A"></path>
                        <path d="M11.4179497,18.8087291 C11.4179497,18.8087291 10.4166958,6.17071637 3.94264017,0.111594186 C3.61608496,-0.19402909 3.12172208,0.180917826 3.29993374,0.59990137 C4.46977562,3.35064705 6.52135559,9.50147438 6.52135559,18.8087291 L11.4179497,18.8087291 Z" id="Shape" fill="#8DCE55"></path>
                        <path d="M4.36914518,0.37299924 C4.26510071,0.284653593 4.15999764,0.197397512 4.05343272,0.111594186 C3.67370064,-0.19402909 3.09883477,0.180917826 3.30606676,0.59990137 C4.6664079,3.35064705 7.05207101,9.50147438 7.05207101,18.8087291 L8.15567838,18.8087291 C8.15567838,9.50147438 5.77001527,3.35069245 4.40967413,0.59990137 C4.37075827,0.521361817 4.35941621,0.444320418 4.36914518,0.37299924 Z" id="Shape" fill="#6DC82A"></path>
                        <path d="M8.15567838,18.8087291 C8.15567838,18.8087291 7.35467272,9.33022809 2.17543338,4.78589128 C1.91417096,4.55664032 1.51870766,4.83788965 1.6612611,5.15212473 C2.59712091,7.21520013 4.23837526,11.8283031 4.23837526,18.8087291 L8.15567838,18.8087291 Z" id="Shape" fill="#8DCE55"></path>
                        <path d="M2.12208265,4.78589128 C1.88642853,4.55664032 1.52972758,4.83788965 1.65830828,5.15212473 C2.5024374,7.21520013 3.98282,11.8283031 3.98282,18.8087291 L4.89340703,18.8087291 C4.89340703,12.0180169 3.49248772,7.46804507 2.6391412,5.32635363 C2.47242822,5.13957182 2.30015955,4.95911228 2.12208265,4.78589128 Z" id="Shape" fill="#6DC82A"></path>
                        <path d="M4.89340703,18.8087291 C4.89340703,18.8087291 4.29263964,12.4897204 0.408232324,9.46015257 C0.212280648,9.30735642 -0.0843347456,9.49483297 0.0226006904,9.70429525 C0.72450613,11.0796906 1.95544947,14.1550697 1.95544947,18.8087291 L4.89340703,18.8087291 Z" id="Shape" fill="#8DCE55"></path>
                        <g id="Group" transform="translate(0.000000, 9.404365)">
                            <path d="M0.296127585,0.0960039712 C0.153989402,-0.0528430981 -0.0611675878,0.129788044 0.0164005595,0.333836676 C0.525544269,1.67368433 1.41843813,4.66957885 1.41843813,9.20296234 L2.21598702,9.20296234 C2.21598702,5.3652888 1.57617405,2.62976464 1.07089154,1.06763212 C0.834975804,0.7180969 0.577613178,0.390875303 0.296127585,0.0960039712 Z" id="Shape" fill="#6DC82A"></path>
                            <path d="M17.4264244,9.8745063 L0.546037362,9.8745063 C0.396889112,9.8745063 0.275948652,9.66401259 0.275948652,9.40428806 C0.275948652,9.14456352 0.396854158,8.93406981 0.546037362,8.93406981 L17.4263895,8.93406981 C17.5755377,8.93406981 17.6964782,9.14456352 17.6964782,9.40428806 C17.6964782,9.66401259 17.5755727,9.8745063 17.4264244,9.8745063 Z" id="Shape" fill="#D3D0F7"></path>
                        </g>
                    </g>
                    <g id="Page-1" transform="translate(181.214765, 113.644309) scale(-1, 1) translate(-181.214765, -113.644309) translate(135.798658, 16.170732)">
                        <polygon id="Fill-1" fill="#CAD5D8" points="55.7739507 31.4013447 67.3934816 32.6877911 67.6491335 34.709542 60.82636 36.3895649 54.6553473 32.6877911"></polygon>
                        <g id="Group-90" transform="translate(0.000000, 0.089220)">
                            <path d="M86.9797863,60.9742925 L85.9464002,69.6464427 C85.6045205,72.515612 84.5529457,75.254487 82.886998,77.615946 L65.6414408,102.061794 L74.3797511,56.6126299 L86.9797863,60.9742925 Z" id="Fill-2" fill="#F9BFB2"></path>
                            <path d="M69.0906196,186.797704 L76.0706915,186.797704 C76.1367096,186.797704 76.190602,186.743835 76.190602,186.677847 L74.8432929,174.182382 C74.8432929,174.116393 74.7894005,174.062524 74.7233823,174.062524 L67.7433105,174.062524 C67.6772923,174.062524 67.6233999,174.116393 67.6233999,174.182382 L68.9707091,186.677847 C68.9707091,186.743835 69.0246015,186.797704 69.0906196,186.797704" id="Fill-4" fill="#993355"></path>
                            <path d="M41.987273,187.429817 L35.1954875,185.833963 C35.1311535,185.818813 35.0910711,185.753834 35.1062283,185.689865 L37.965892,173.531415 C37.9810492,173.46711 38.04572,173.427045 38.1097172,173.442195 L44.9018395,175.038049 C44.9658367,175.053199 45.0059191,175.117841 44.9907619,175.182147 L42.131435,187.340597 C42.1162778,187.404903 42.0512701,187.444967 41.987273,187.429817" id="Fill-16" fill="#993355"></path>
                            <g id="Group-10" transform="translate(19.391147, 183.719831)">
                                <path d="M15.7756092,0.535011358 L22.7836377,0.924211047 C23.1443798,0.944075045 23.4327039,1.231598 23.453924,1.59184339 L23.8412754,8.17255024 L1.17987231,8.17255024 L1.46449137,7.46114977 C1.82152829,6.56928993 2.5622115,5.88617041 3.48006586,5.60201423 L15.7756092,0.535011358 Z" id="Fill-18" fill="#1D1F22"></path>
                                <path d="M23.7015801,9.69632444 L1.25995796,9.69632444 C0.762238112,9.69632444 0.354986672,9.35183761 0.354986672,8.93082514 C0.354986672,8.50981267 0.762238112,8.16532584 1.25995796,8.16532584 L23.7015801,8.16532584 C24.1993,8.16532584 24.6065514,8.50981267 24.6065514,8.93082514 C24.6065514,9.35183761 24.1993,9.69632444 23.7015801,9.69632444" id="Fill-20" fill="#000000"></path>
                                <g id="Group-2" transform="translate(13.207137, 3.006841) rotate(-5.000000) translate(-13.207137, -3.006841) translate(10.245217, 1.027682)" fill="#FFFFFF">
                                    <path d="M4.54760626,2.03081116 C4.69917854,2.20824043 4.96864037,2.22945114 5.14614835,2.07794607 C5.32365634,1.926441 5.34487645,1.65709866 5.19330418,1.47966939 L4.15722344,0.267292154 L3.27406229,0.540337957 L4.54760626,2.03081116 Z" id="Fill-22"></path>
                                    <path d="M2.84959254,2.45512636 C3.00116482,2.63255563 3.27062665,2.65376634 3.44813463,2.50226127 C3.62564261,2.3507562 3.64686273,2.08141385 3.49529045,1.90398458 L2.52724882,0.771400021 L1.6444245,1.04444582 L2.84959254,2.45512636 Z" id="Fill-24"></path>
                                    <path d="M1.15157882,2.87944156 C1.30315109,3.05687083 1.57261293,3.07808154 1.75012091,2.92657647 C1.92762889,2.7750714 1.94884901,2.50572905 1.79727673,2.32829978 L0.89761104,1.27550789 L0.0144498907,1.54889037 L1.15157882,2.87944156 Z" id="Fill-26"></path>
                                </g>
                            </g>
                            <g id="Group-10-Copy" transform="translate(78.490881, 188.667729) scale(-1, 1) translate(-78.490881, -188.667729) translate(66.149548, 183.719831)">
                                <path d="M15.7756092,0.535011358 L22.7836377,0.924211047 C23.1443798,0.944075045 23.4327039,1.231598 23.453924,1.59184339 L23.8412754,8.17255024 L1.17987231,8.17255024 L1.46449137,7.46114977 C1.82152829,6.56928993 2.5622115,5.88617041 3.48006586,5.60201423 L15.7756092,0.535011358 Z" id="Fill-18" fill="#1D1F22"></path>
                                <path d="M23.6009777,9.69632444 L1.67404926,9.69632444 C1.18774451,9.69632444 0.789833294,9.35183761 0.789833294,8.93082514 C0.789833294,8.50981267 1.18774451,8.16532584 1.67404926,8.16532584 L23.6009777,8.16532584 C24.0872825,8.16532584 24.4851937,8.50981267 24.4851937,8.93082514 C24.4851937,9.35183761 24.0872825,9.69632444 23.6009777,9.69632444" id="Fill-20" fill="#000000"></path>
                                <g id="Group-2" transform="translate(13.207137, 3.006841) rotate(-5.000000) translate(-13.207137, -3.006841) translate(10.245217, 1.027682)" fill="#FFFFFF">
                                    <path d="M4.54760626,2.03081116 C4.69917854,2.20824043 4.96864037,2.22945114 5.14614835,2.07794607 C5.32365634,1.926441 5.34487645,1.65709866 5.19330418,1.47966939 L4.15722344,0.267292154 L3.27406229,0.540337957 L4.54760626,2.03081116 Z" id="Fill-22"></path>
                                    <path d="M2.84959254,2.45512636 C3.00116482,2.63255563 3.27062665,2.65376634 3.44813463,2.50226127 C3.62564261,2.3507562 3.64686273,2.08141385 3.49529045,1.90398458 L2.52724882,0.771400021 L1.6444245,1.04444582 L2.84959254,2.45512636 Z" id="Fill-24"></path>
                                    <path d="M1.15157882,2.87944156 C1.30315109,3.05687083 1.57261293,3.07808154 1.75012091,2.92657647 C1.92762889,2.7750714 1.94884901,2.50572905 1.79727673,2.32829978 L0.89761104,1.27550789 L0.0144498907,1.54889037 L1.15157882,2.87944156 Z" id="Fill-26"></path>
                                </g>
                            </g>
                            <polygon id="Fill-28" fill="#CDB39E" points="43.2692376 89.9303454 34.4864661 184.250668 44.1951758 186.016207 72.4623955 75.752501"></polygon>
                            <polygon id="Fill-30" fill="#C3A892" points="81.7595697 87.1093883 77.1019219 184.470249 65.7265908 185.546945 60.7210004 88.6513733"></polygon>
                            <g id="Group-34" transform="translate(0.000000, 33.667793)">
                                <mask id="mask-3" fill="white">
                                    <use xlink:href="#path-2"></use>
                                </mask>
                                <g id="Clip-33"></g>
                                <path d="M6.77009376,6.63383463 C6.28910439,7.15366536 5.46994043,7.18564976 4.95021592,6.70487368 L0.411805042,2.50885661 C-0.10825629,2.02808053 -0.140254883,1.2092798 0.341071312,0.689449069 C0.822060679,0.169618342 1.64088782,0.137970616 2.16094915,0.618746703 L6.6990232,4.81476377 C7.21908453,5.29553985 7.25108313,6.11400391 6.77009376,6.63383463" id="Fill-32" fill="#EAAEA4" mask="url(#mask-3)"></path>
                            </g>
                            <path d="M3.79671719,37.6309975 C4.18541588,38.9191272 4.22549833,39.9456582 5.16962522,40.6533553 L8.94512229,43.4838066 C9.93236307,44.2238247 10.7097605,45.2079343 11.2011915,46.3395088 L20.3036121,67.3054537 C21.8469547,70.8600993 26.5157178,71.6943872 29.1951788,68.8939002 L36.084981,61.6943793 L29.818983,53.7231926 L26.4011965,57.7087859 L16.717412,40.6274311 L16.717412,38.3376844 C16.717412,37.6336909 17.0693965,36.9764956 17.655476,36.5859492 C18.137139,36.2650951 18.4264736,35.724727 18.4264736,35.1459776 C18.4264736,34.3517544 17.885529,33.6595446 17.1148682,33.4669648 L17.0987004,33.4629247 C16.5089159,33.3154597 15.8847749,33.4885122 15.4546465,33.9184499 C14.439449,34.9328605 13.8692004,36.3088632 13.8692004,37.7437846 L13.5323731,39.4884496 L8.10642234,37.5683754 C7.438157,37.3458313 6.75945002,36.1146001 6.75945002,36.1146001 L6.06087022,33.3218566 C5.95510645,32.8993258 5.67015057,32.5437939 5.28044139,32.3491941 C4.42624739,31.9222864 3.39622955,32.3956556 3.16449237,33.3218566 L3.12676771,33.4726883 C3.07388583,33.6847954 3.06815977,33.9059928 3.10992635,34.1207933 L3.79671719,37.6309975 Z" id="Fill-35" fill="#F9BFB2"></path>
                            <path d="M81.7594686,87.109321 L43.2692039,89.9303454 L42.0583098,58.0119307 L42.9087987,35.2016642 C44.8957429,34.0805267 47.1309288,33.4411753 49.449311,33.3583525 L55.4077857,33.3506089 C59.1583576,33.3458954 62.8904039,33.8569725 66.5025398,34.866333 C71.4609743,36.252436 77.8337466,38.0829539 76.8983772,38.0829539 L81.7594686,87.109321 Z" id="Fill-37" fill="#FFFFFF"></path>
                            <path d="M61.4690602,44.5476416 C58.7784838,44.5476416 56.5769806,42.3471146 56.5769806,39.6577313 L56.5769806,29.4314758 C56.5769806,26.7417558 58.7784838,24.5412288 61.4690602,24.5412288 C64.1596365,24.5412288 66.3611397,26.7417558 66.3611397,29.4314758 L66.3611397,39.6577313 C66.3611397,42.3471146 64.1596365,44.5476416 61.4690602,44.5476416" id="Fill-39" fill="#E39E8F"></path>
                            <path d="M63.785893,31.312125 L59.15216,31.312125 C55.4905105,31.312125 52.4944318,28.3173748 52.4944318,24.657349 L52.4944318,13.6442772 C52.4944318,9.9842514 55.4905105,6.9895012 59.15216,6.9895012 L63.785893,6.9895012 C67.4478792,6.9895012 70.4436211,9.9842514 70.4436211,13.6442772 L70.4436211,24.657349 C70.4436211,28.3173748 67.4478792,31.312125 63.785893,31.312125" id="Fill-41" fill="#F9BFB2"></path>
                            <path d="M55.7185763,18.4730468 C55.6198859,18.4727101 55.5205218,18.4440925 55.4332836,18.3841638 C55.2035674,18.2259252 55.1456331,17.911468 55.3036051,17.681517 C56.2265118,16.3428855 58.067273,16.0031775 59.4068351,16.9253383 C59.6362145,17.0835769 59.6944856,17.3976975 59.5365136,17.6276485 C59.3782048,17.8579362 59.0639449,17.9151714 58.833555,17.7572695 C57.9530885,17.1509125 56.7425312,17.37413 56.1359053,18.2545428 C56.0378885,18.3969576 55.8795797,18.4733834 55.7185763,18.4730468" id="Fill-43" fill="#1D1F22"></path>
                            <path d="M67.2177252,18.4937861 C67.0567217,18.4934495 66.8987497,18.4166869 66.8010698,18.2735988 C66.1978121,17.3904925 64.9879285,17.1635716 64.105441,17.7668985 C63.875388,17.9237904 63.5607913,17.8655451 63.4031561,17.634584 C63.245521,17.4042963 63.3048026,17.0901758 63.5351924,16.9326106 C64.8787965,16.0151632 66.7178735,16.3619415 67.6357278,17.7039397 C67.7926893,17.9342274 67.7337446,18.2483479 67.5033547,18.4059132 C67.4157796,18.4655052 67.3164156,18.4937861 67.2177252,18.4937861" id="Fill-45" fill="#1D1F22"></path>
                            <path d="M61.7901239,24.4434575 L61.1245532,24.4421108 C60.5873137,24.4414375 60.1484277,24.0010627 60.1494382,23.4637248 L60.1531433,21.3022524 C60.1541538,20.7649145 60.5947239,20.3262231 61.1319634,20.3272331 L61.7975341,20.3285799 C62.3351105,20.3295899 62.7739964,20.7696279 62.7729859,21.3069659 L62.768944,23.4684382 C62.7679335,24.0057762 62.3277003,24.4444676 61.7901239,24.4434575" id="Fill-47" fill="#E39E8F"></path>
                            <path d="M62.8434839,23.6971772 L60.0740899,23.6921271 C59.9093814,23.6917904 59.7749873,23.5571192 59.7753241,23.3924837 L59.7753241,23.242662 C59.775661,23.0780265 59.9107287,22.943692 60.0754372,22.9440287 L62.8448312,22.9490789 C63.0095398,22.9494155 63.1439338,23.0840867 63.143597,23.2487222 L63.1432602,23.3985439 C63.1432602,23.5631794 63.0081924,23.6975139 62.8434839,23.6971772" id="Fill-49" fill="#E39E8F"></path>
                            <path d="M58.8591539,25.8133664 L63.878891,25.6086662 C64.1355534,25.5982292 64.3133982,25.8621847 64.2066239,26.0961758 L64.2062871,26.0968492 C63.7680748,27.0594114 62.8754825,27.7374808 61.8303074,27.9017796 C60.6456858,28.0882992 59.4580328,27.585639 58.7668632,26.6059062 L58.5913762,26.3564279 C58.433741,26.1332104 58.5863238,25.8244767 58.8591539,25.8133664" id="Fill-51" fill="#FFFFFF"></path>
                            <path d="M58.598618,19.8085135 C58.598618,20.2734657 58.2217083,20.6502083 57.7565498,20.6502083 C57.2913913,20.6502083 56.9144816,20.2734657 56.9144816,19.8085135 C56.9144816,19.3435612 57.2913913,18.9668186 57.7565498,18.9668186 C58.2217083,18.9668186 58.598618,19.3435612 58.598618,19.8085135" id="Fill-53" fill="#1D1F22"></path>
                            <path d="M65.5035774,19.8085135 C65.5035774,20.2734657 65.1266677,20.6502083 64.6615092,20.6502083 C64.1963507,20.6502083 63.819441,20.2734657 63.819441,19.8085135 C63.819441,19.3435612 64.1963507,18.9668186 64.6615092,18.9668186 C65.1266677,18.9668186 65.5035774,19.3435612 65.5035774,19.8085135" id="Fill-55" fill="#1D1F22"></path>
                            <g id="Group-59" transform="translate(51.197748, 0.000000)">
                                <mask id="mask-5" fill="white">
                                    <use xlink:href="#path-4"></use>
                                </mask>
                                <g id="Clip-58"></g>
                                <path d="M24.0714632,7.24140363 C24.0714632,3.37869772 21.0235131,0.247256273 17.26351,0.247256273 C17.0735395,0.247256273 16.8869371,0.26072339 16.7010085,0.276547253 C17.4248503,1.04282623 17.9769102,1.97946423 18.3009381,3.0204724 C17.3446854,2.16665716 16.0994349,1.64615308 14.7329266,1.64615308 C14.5810175,1.64615308 14.4314662,1.65692677 14.2829254,1.66938386 C14.8346485,2.25385675 15.258714,2.96323715 15.5224498,3.74938012 L12.0743488,3.74938012 L12.0851273,3.75847042 C11.9955313,3.75544032 11.9076193,3.74432995 11.8173496,3.74432995 L8.41337305,3.74432995 C3.92009703,3.74432995 0.243964005,7.52118299 0.243964005,12.1373741 L0.243964005,20.0893702 L1.6054199,18.0693026 C1.6054199,18.0693026 0.881578061,12.3060498 6.11284267,12.3060498 C11.5590031,12.3060498 10.4558937,13.3312341 15.9020541,13.3312341 L18.5414328,13.3312341 L18.5414328,17.7326247 L19.9867587,19.0793364 L19.9867587,13.348068 C22.3903582,12.2686785 24.0714632,10.1088896 24.0714632,7.24140363" id="Fill-57" fill="#1D1F22" mask="url(#mask-5)"></path>
                            </g>
                            <path d="M53.9996456,22.1264063 L53.6234095,22.1264063 C52.1743785,22.1264063 50.9890833,20.9416367 50.9890833,19.4932482 C50.9890833,18.0451965 52.1743785,16.8600901 53.6234095,16.8600901 L53.9996456,16.8600901 L53.9996456,22.1264063 Z" id="Fill-60" fill="#F9BFB2"></path>
                            <path d="M69.2689697,22.1264063 L69.2689697,16.8600901 C70.561376,16.8600901 71.6186768,17.9169222 71.6186768,19.2087554 L71.6186768,19.7777411 C71.6186768,21.0695743 70.561376,22.1264063 69.2689697,22.1264063" id="Fill-62" fill="#F9BFB2"></path>
                            <path d="M60.09659,35.2651616 L61.1522067,39.4426614 L62.8474585,35.5708652 L68.6998326,36.3004463 C68.6998326,36.3004463 69.8645814,51.1701638 69.5277541,51.1701638 C69.1909268,51.1701638 56.5767448,49.8796773 56.5767448,49.8796773 L53.2899842,36.3004463 L60.09659,35.2651616 Z" id="Fill-64" fill="#FFFFFF"></path>
                            <polygon id="Fill-66" fill="#E6EBED" points="58.3607169 38.6534547 53.9994772 33.3524606 55.7738833 31.3121924 60.0967247 35.265128"></polygon>
                            <polygon id="Fill-68" fill="#E6EBED" points="63.3149074 39.4426951 67.7236397 35.2089701 67.393549 32.5983694 62.8473911 35.5708989"></polygon>
                            <polygon id="Fill-70" fill="#EAEEEF" points="60.7211015 88.6513059 60.7594998 37.8883541 61.8386944 37.874887 62.5069598 88.5203382"></polygon>
                            <polygon id="Fill-72" fill="#FFFFFF" points="18.8134545 43.2917655 18.1165588 42.1470606 10.5234613 46.2807922 11.1610753 47.7116734"></polygon>
                            <path d="M78.5854777,38.9391932 L76.9026886,38.1254427 L67.6490325,33.8062015 L61.4689254,91.5680142 L54.6552462,32.5985377 C50.9632823,32.5985377 47.3083694,33.3399025 43.9084348,34.7785273 L42.9087314,35.2013948 C41.7648659,35.8410829 40.7109333,36.6383362 39.7701747,37.5790144 L27.4022135,53.6449486 L19.3641671,42.9988557 L10.5234613,48.0315175 L20.9671282,69.258051 C22.3060166,72.0632516 25.9797919,72.7706119 28.265165,70.6633447 L42.0606003,57.9453358 L41.1875439,95.6435005 L50.3916864,96.3814986 C54.9422231,96.6760918 59.3229988,94.6045124 61.9809029,90.9010552 L61.4689254,91.5680142 C65.0595043,94.722013 70.694288,94.7728514 75.014098,92.7271963 L82.1262062,89.3590703 L81.2147515,81.6154778 L82.4438343,79.6432185 L84.6904723,76.0306643 C85.6100108,74.5526482 86.1758807,72.8827256 86.340926,71.1488343 L87.2840424,61.2740706 C88.3787311,50.8791394 86.8977015,45.9424309 83.2710821,42.2430138 C81.9244466,40.8693678 80.3177805,39.7768479 78.5854777,38.9391932 Z" id="Fill-74" fill="#1D1F22"></path>
                            <polygon id="Fill-76" fill="#000000" points="82.1323364 80.1431179 81.1471166 81.7238208 77.6636488 45.9413535"></polygon>
                            <path d="M55.0343131,81.6000243 L45.9544599,82.199311 C45.4108207,82.2349989 44.9369047,81.819875 44.901201,81.2768135 L44.7796063,79.4365319 C44.758723,79.1240948 44.9978704,78.8517224 45.3104461,78.831185 L55.2296729,78.1763464 C55.5422487,78.1558091 55.8150788,78.3945137 55.8356252,78.7069509 L55.9572199,80.5472324 C55.9929236,81.0902939 55.5776155,81.5639998 55.0343131,81.6000243" id="Fill-86" fill="#000000"></path>
                            <path d="M77.9686108,80.4391251 L68.8887576,81.0384119 C68.3451183,81.0740997 67.8712023,80.6589758 67.8354986,80.1159143 L67.713904,78.2756328 C67.6930207,77.9631956 67.9321681,77.6908232 68.2447438,77.6702858 L78.1639706,77.0154473 C78.4765463,76.9949099 78.7493764,77.2336146 78.7699229,77.5460517 L78.8915175,79.3863333 C78.9272212,79.9293948 78.5119132,80.4031006 77.9686108,80.4391251" id="Fill-88" fill="#000000"></path>
                        </g>
                    </g>
                    <g id="Page-1" transform="translate(75.543624, 16.170732)">
                        <path d="M39.4568111,42.1310455 L40.3027443,41.9340191 C44.8868843,40.866201 49.6281354,43.1084253 51.1103038,47.045399 L53.5017044,62.2794106 C53.8996761,64.2819734 53.7980732,66.3362151 53.2037126,68.3013106 L48.5871117,83.1842277 L40.7964759,74.3933002 L42.419525,46.886163 L39.4568111,42.1310455 Z" id="Fill-1" fill="#FDC02F"></path>
                        <g id="Group-5" transform="translate(8.764465, 0.274868)">
                            <mask id="mask-7" fill="white">
                                <use xlink:href="#path-6"></use>
                            </mask>
                            <g id="Clip-4"></g>
                            <path d="M0.294356189,14.5929008 L1.2594212,11.9663137 L1.14580776,11.0096055 C1.04452949,10.1543174 1.0578385,9.28933948 1.18638399,8.43760432 L1.54150714,6.07877921 L0.789710782,2.40020065 C0.771857242,2.31266927 0.772181851,2.22255395 0.790360002,2.13502258 L0.836454597,1.91247972 C0.910790247,1.55621735 1.26136886,1.32721461 1.61941349,1.40118023 L1.62006271,1.40118023 C1.84177122,1.44672238 2.02452656,1.60208249 2.10502979,1.81267458 L3.39989838,5.21024837 L3.8069591,0.893433678 C3.82416342,0.711588061 3.92349403,0.547507114 4.07670987,0.447378977 L4.07703448,0.447055983 C4.29452306,0.305261621 4.57855666,0.317535392 4.78241163,0.477740412 L4.93984739,0.600801122 C5.08040345,0.711265067 5.16447739,0.87825296 5.16934654,1.05654564 L5.25796502,4.34139453 L6.9521037,0.469665562 C7.02027176,0.31333647 7.14329888,0.187368814 7.29813777,0.11501816 L7.29846238,0.114695166 C7.66981602,-0.0587526069 8.11128538,0.118894088 8.25671058,0.500672985 L8.37876388,0.821083024 C8.43264911,0.962231398 8.4391413,1.11662253 8.39759125,1.26164683 L7.30625302,5.07685185 L8.97182603,1.99355121 C9.10394223,1.74936775 9.34707499,1.58464082 9.62396717,1.55234142 L9.62396717,1.55201843 C10.0923791,1.49710945 10.5166442,1.83043925 10.5718279,2.29619658 L10.5922783,2.46802938 C10.6130533,2.64212314 10.5789693,2.81847786 10.4948953,2.972546 L7.70130317,8.09523069 C7.57567917,8.32520241 7.76330365,8.60071629 8.02461456,8.57003186 L9.66227113,8.37752744 C9.87456595,8.3526569 10.0888084,8.34878097 10.3017525,8.36557666 L11.058418,8.42597654 C11.3914677,8.45246204 11.6595954,8.70924227 11.6985486,9.03966512 L11.6988732,9.04160308 C11.7277634,9.28514055 11.6261606,9.52577108 11.4313947,9.67564029 C10.6461635,10.2793161 9.77977988,10.7705899 8.85756337,11.1349271 L5.5643967,12.4365929 L4.91258017,15.225969 L0.294356189,14.5929008 Z" id="Fill-3" fill="#C57E68" mask="url(#mask-7)"></path>
                        </g>
                        <g id="Group-8" transform="translate(0.000000, 12.548640)">
                            <mask id="mask-9" fill="white">
                                <use xlink:href="#path-8"></use>
                            </mask>
                            <g id="Clip-7"></g>
                            <path d="M7.97186546,0.294409023 L15.1265906,2.69425437 L11.0283916,21.2893414 C10.8261597,22.1233119 11.2718489,22.978277 12.0733106,23.2941651 L33.4157574,32.3932288 C33.4157574,32.3932288 35.9120069,47.0661998 34.7073799,46.8778944 C33.7695821,46.7312551 12.2869039,34.6199494 3.00890585,30.823801 C0.593808753,29.8357624 -0.601729232,27.1251968 0.300036861,24.6865922 L7.97186546,0.294409023 Z" id="Fill-6" fill="#FDC02F" mask="url(#mask-9)"></path>
                        </g>
                        <polygon id="Fill-9" fill="#C57E68" points="19.8179492 122.223058 23.5097367 186.175868 27.4050546 186.175868 33.2480315 118.670124"></polygon>
                        <polygon id="Fill-11" fill="#C57E68" points="46.8682702 122.220086 43.2047237 186.174511 39.3094058 186.176126 33.4365649 118.672966"></polygon>
                        <path d="M46.2324245,42.4112428 L38.954023,40.4009282 C35.4349279,39.4132125 31.7103547,39.4132125 28.1912596,40.4009282 L20.9128581,42.4435422 L17.9913697,82.817791 L33.5726413,83.786773 L49.1539129,82.817791 L46.2324245,42.4112428 Z" id="Fill-13" fill="#FED45B"></path>
                        <polygon id="Fill-15" fill="#1D1F22" points="51.1015718 123.19204 16.0437108 123.19204 17.9913697 82.817791 49.1539129 82.817791"></polygon>
                        <path d="M23.2500489,24.6788404 L22.9764028,27.5250634 C22.6926938,30.4769055 21.3293325,33.2223544 19.1456822,35.2400979 L17.9913697,36.306624 L30.0019332,42.1205159 L30.0019332,40.5055459 L37.6302641,40.1825519 C41.5849856,37.5591947 43.9601557,33.1432209 43.9601557,28.4139429 L43.9601557,23.7098584 L26.4312251,22.0948884 L23.2500489,24.6788404 Z" id="Fill-17" fill="#1D1F22"></path>
                        <path d="M30.0019332,42.1205159 C30.0019332,46.2235085 26.6594259,49.5493777 22.5359072,49.5493777 C18.4123886,49.5493777 15.0698813,46.2235085 15.0698813,42.1205159 C15.0698813,38.0175232 18.4123886,34.6916541 22.5359072,34.6916541 C26.6594259,34.6916541 30.0019332,38.0175232 30.0019332,42.1205159" id="Fill-19" fill="#1D1F22"></path>
                        <path d="M34.3841659,44.3814738 L33.0857266,44.3814738 C31.3896402,44.3814738 30.0019332,43.0006745 30.0019332,41.3130309 L30.0019332,37.114109 C30.0019332,35.4264654 31.3896402,34.0456661 33.0857266,34.0456661 L34.3841659,34.0456661 C36.0802522,34.0456661 37.4679592,35.4264654 37.4679592,37.114109 L37.4679592,41.3130309 C37.4679592,43.0006745 36.0802522,44.3814738 34.3841659,44.3814738" id="Fill-21" fill="#B76E5A"></path>
                        <path d="M33.5726413,17.5729726 L25.4573957,17.5729726 L25.4573957,24.3558464 L25.4573957,29.4323429 C25.4573957,31.9400683 26.6029437,34.3114901 28.5707285,35.878011 L29.9522679,36.9774825 C32.068724,38.6625422 35.0765586,38.6625422 37.1930147,36.9774825 L38.5745541,35.878011 C40.5423388,34.3114901 41.6878869,31.9400683 41.6878869,29.4323429 L41.6878869,24.3558464 L41.6878869,17.5729726 L33.5726413,17.5729726 Z" id="Fill-23" fill="#C57E68"></path>
                        <path d="M25.7820055,27.9087803 C25.0678639,27.9087803 24.4835662,27.3273911 24.4835662,26.6168043 L24.4835662,25.0018343 C24.4835662,24.2912476 25.0678639,23.7098584 25.7820055,23.7098584 C26.4961471,23.7098584 27.0804448,24.2912476 27.0804448,25.0018343 L27.0804448,26.6168043 C27.0804448,27.3273911 26.4961471,27.9087803 25.7820055,27.9087803" id="Fill-25" fill="#C57E68"></path>
                        <path d="M41.3632771,27.9087803 C40.6491355,27.9087803 40.0648378,27.3273911 40.0648378,26.6168043 L40.0648378,25.0018343 C40.0648378,24.2912476 40.6491355,23.7098584 41.3632771,23.7098584 C42.0774187,23.7098584 42.6617164,24.2912476 42.6617164,25.0018343 L42.6617164,26.6168043 C42.6617164,27.3273911 42.0774187,27.9087803 41.3632771,27.9087803" id="Fill-27" fill="#C57E68"></path>
                        <path d="M35.1956904,18.8649485 C35.1956904,18.8649485 35.6420289,23.9521039 42.1949275,23.9521039 L43.9195795,23.9521039 C43.9195795,17.9314959 39.2870727,13.0510567 33.5726413,13.0510567 C27.8582099,13.0510567 23.2257031,17.9314959 23.2257031,23.9521039 C23.2257031,24.1966103 23.2360906,24.4385328 23.2510227,24.6788404 L24.9503551,24.6788404 C24.9503551,24.6788404 35.1956904,25.3248283 35.1956904,18.8649485" id="Fill-29" fill="#1D1F22"></path>
                        <path d="M26.4312251,27.9087803 C26.4312251,28.4439813 25.9952742,28.8777622 25.4573957,28.8777622 C24.9195172,28.8777622 24.4835662,28.4439813 24.4835662,27.9087803 C24.4835662,27.3735792 24.9195172,26.9397983 25.4573957,26.9397983 C25.9952742,26.9397983 26.4312251,27.3735792 26.4312251,27.9087803" id="Fill-31" fill="#FFFFFF"></path>
                        <path d="M42.6617164,27.9087803 C42.6617164,28.4439813 42.2257654,28.8777622 41.6878869,28.8777622 C41.1500084,28.8777622 40.7140574,28.4439813 40.7140574,27.9087803 C40.7140574,27.3735792 41.1500084,26.9397983 41.6878869,26.9397983 C42.2257654,26.9397983 42.6617164,27.3735792 42.6617164,27.9087803" id="Fill-33" fill="#FFFFFF"></path>
                        <path d="M31.255479,28.3932713 C31.255479,28.839326 30.8922406,29.2007562 30.4439544,29.2007562 C29.9956682,29.2007562 29.6324299,28.839326 29.6324299,28.3932713 C29.6324299,27.9472166 29.9956682,27.5857863 30.4439544,27.5857863 C30.8922406,27.5857863 31.255479,27.9472166 31.255479,28.3932713" id="Fill-35" fill="#1D1F22"></path>
                        <path d="M31.6586444,26.1699744 L28.8653768,27.0210636 C28.6092597,27.0992281 28.3356136,26.9545268 28.257058,26.6996846 C28.1785025,26.4451653 28.3239277,26.1728814 28.5800448,26.0947168 L31.373637,25.2436277 C31.6294295,25.1654631 31.9030756,25.3101644 31.9816312,25.5650067 C32.0601867,25.8195259 31.9147615,26.0918099 31.6586444,26.1699744" id="Fill-37" fill="#1D1F22"></path>
                        <path d="M37.2607607,28.3932713 C37.2607607,28.839326 36.8975223,29.2007562 36.4492362,29.2007562 C36.00095,29.2007562 35.6377116,28.839326 35.6377116,28.3932713 C35.6377116,27.9472166 36.00095,27.5857863 36.4492362,27.5857863 C36.8975223,27.5857863 37.2607607,27.9472166 37.2607607,28.3932713" id="Fill-39" fill="#1D1F22"></path>
                        <path d="M38.0743303,26.9526212 L35.2388635,26.2523702 C34.9788511,26.1884174 34.819143,25.9242083 34.8834158,25.6654901 C34.9480131,25.4070949 35.213544,25.2478589 35.4732318,25.3121347 L38.3090232,26.0120627 C38.5687111,26.0763385 38.7287438,26.3405475 38.6641464,26.5989427 C38.599549,26.8576609 38.3343428,27.016897 38.0743303,26.9526212" id="Fill-41" fill="#1D1F22"></path>
                        <path d="M34.5493273,30.7192479 C34.8005753,31.2609088 34.5684793,31.9456561 34.0000875,32.1349305 C33.8932909,32.1704599 33.7796774,32.1895165 33.6615195,32.1895165 L33.2317361,32.1895165 C33.1135781,32.1895165 32.99964,32.1704599 32.893168,32.1349305 C32.3247762,31.9456561 32.0926802,31.2609088 32.3439282,30.7192479 L33.0937769,29.10234 C33.2327099,28.8029245 33.6605456,28.8029245 33.7994786,29.10234 L34.5493273,30.7192479 Z" id="Fill-43" fill="#B76E5A"></path>
                        <path d="M39.5998018,193.075149 L37.9329303,193.075149 C37.4986024,193.075149 37.1434792,192.72147 37.1434792,192.289305 L37.1434792,187.946327 L40.3895775,187.946327 L40.3895775,192.289305 C40.3895775,192.72147 40.0341297,193.075149 39.5998018,193.075149" id="Fill-45" fill="#1D1F22"></path>
                        <g id="Group-49" transform="translate(37.005520, 181.474497)">
                            <mask id="mask-11" fill="white">
                                <use xlink:href="#path-10"></use>
                            </mask>
                            <g id="Clip-48"></g>
                            <path d="M17.7647271,10.1129419 C18.0364255,10.7889683 17.5650921,11.5318545 16.83472,11.5780426 L16.3523498,11.608404 C14.6069227,11.6229388 7.65929866,11.6471633 7.37851116,11.6006522 C7.19445739,11.5699677 6.59620149,10.9291477 6.04404017,10.2954335 C5.30263133,9.44499028 4.41384963,8.73375751 3.41470059,8.20533934 L0.13776441,6.47183059 L0.13776441,6.15917241 C0.13776441,5.51867533 0.259168484,4.88366914 0.495484437,4.28774523 L0.630522124,3.94763256 C0.911958842,3.23801476 1.02979221,2.47445696 0.975257758,1.71316013 L0.874304102,0.305229321 L2.15813596,0.269053994 C2.40256716,0.261948127 2.64569992,0.312658183 2.86708382,0.416662248 L2.94401635,0.452837575 C3.72372914,0.819435755 4.63393509,0.784875398 5.38313457,0.3601383 C5.60484308,0.234493637 5.85446804,0.164726935 6.10961136,0.157621068 L7.37851116,0.121768735 L7.74564488,2.4512014 C7.78687032,2.60042462 7.83880789,2.74609491 7.87938412,2.89467215 C8.90222968,6.63946448 12.627452,8.21987407 15.6573601,9.20339077 L15.719036,9.2234164 L17.4164208,9.78639493" id="Fill-47" fill="#603F30" mask="url(#mask-11)"></path>
                        </g>
                        <path d="M42.6617164,181.715676 C42.5675795,181.74733 42.4753903,181.785443 42.3883949,181.834538 C41.6395201,182.259275 40.7289895,182.294159 39.9496013,181.92756 L39.8723442,181.891385 C39.7275682,181.823233 39.5733785,181.780275 39.4156181,181.759281 L39.4156181,185.206918 C39.4156181,186.095152 40.1459902,186.821888 41.0386673,186.821888 C41.9313443,186.821888 42.6617164,186.095152 42.6617164,185.206918 L42.6617164,181.715676 Z" id="Fill-50" fill="#1D1F22"></path>
                        <path d="M27.0720049,193.075149 L28.7388764,193.075149 C29.1732043,193.075149 29.5283275,192.72147 29.5283275,192.289305 L29.5283275,187.946327 L26.2822292,187.946327 L26.2822292,192.289305 C26.2822292,192.72147 26.637677,193.075149 27.0720049,193.075149" id="Fill-52" fill="#1D1F22"></path>
                        <g id="Group-56" transform="translate(11.685954, 181.474497)">
                            <mask id="mask-13" fill="white">
                                <use xlink:href="#path-12"></use>
                            </mask>
                            <g id="Clip-55"></g>
                            <path d="M1.62791827,11.6085655 C3.37366991,11.6227773 10.321294,11.6473248 10.6017569,11.6008137 C10.7858107,11.5701292 11.3840666,10.9289862 11.9362279,10.295595 C12.6779613,9.44515178 13.566743,8.73391901 14.5655675,8.20517785 L17.8425036,6.47199209 L17.8425036,6.15901091 C17.8425036,5.51851383 17.7210996,4.88383064 17.4847836,4.28790672 L17.3497459,3.94779405 C17.0683092,3.23785326 16.9504758,2.47429547 17.0050103,1.71332162 L17.1062886,0.305067824 L15.8224567,0.268892497 C15.5777009,0.262109624 15.3345681,0.31281968 15.1135088,0.416823745 L15.0362517,0.452999072 C14.2568635,0.819597252 13.3466576,0.785036895 12.5974581,0.360299797 C12.375425,0.23433214 12.1261246,0.164888432 11.8709813,0.157782565 L10.6017569,0.121930232 L10.2346232,2.45136289 C10.1933977,2.60026312 10.1417848,2.74593341 10.1012085,2.89451065 C9.07803836,6.63930298 5.35281601,8.22003557 2.32290791,9.20322928 L2.26123204,9.2232549 L0.563847266,9.78623343 C0.405113061,9.83888145 0.27786601,9.95838923 0.215540924,10.1131033 C-0.0561574997,10.7891298 0.415500576,11.531693 1.14554807,11.5778811 L1.62791827,11.6085655 Z" id="Fill-54" fill="#603F30" mask="url(#mask-13)"></path>
                        </g>
                        <path d="M24.0100903,181.715676 C24.1042272,181.74733 24.1964163,181.785443 24.2834118,181.834538 C25.0322866,182.259275 25.9428172,182.294159 26.7222054,181.92756 L26.7994625,181.891385 C26.9442385,181.823233 27.0984282,181.780275 27.2561886,181.759281 L27.2561886,185.206918 C27.2561886,186.095152 26.5258164,186.821888 25.6331394,186.821888 C24.7404624,186.821888 24.0100903,186.095152 24.0100903,185.206918 L24.0100903,181.715676 Z" id="Fill-57" fill="#1D1F22"></path>
                        <path d="M31.5811925,33.6483189 L35.8397488,33.4755171 C36.057562,33.4667963 36.2081809,33.6896621 36.1179394,33.8870114 L36.1176148,33.8876574 C35.7456119,34.7006333 34.9882972,35.2733017 34.1017878,35.4118661 C33.0967958,35.5694871 32.0892069,35.145073 31.5029615,34.3175624 L31.3539656,34.1069704 C31.2202264,33.9186649 31.3497457,33.6576857 31.5811925,33.6483189" id="Fill-59" fill="#FFFFFF"></path>
                    </g>
                </g>
            </g>
        </g>
    </g>
</svg>