<?xml version="1.0" encoding="UTF-8" standalone="no"?>
<svg width="268px" height="220px" viewBox="0 0 268 220" version="1.1" xmlns="http://www.w3.org/2000/svg" xmlns:xlink="http://www.w3.org/1999/xlink">
    <!-- Generator: Sketch 48.2 (47327) - http://www.bohemiancoding.com/sketch -->
    <title>Group 2</title>
    <desc>Created with Sketch.</desc>
    <defs>
        <linearGradient x1="85.8611474%" y1="100%" x2="52.5745992%" y2="40.3223503%" id="linearGradient-1">
            <stop stop-color="#988CFF" offset="0%"></stop>
            <stop stop-color="#5E53FF" offset="100%"></stop>
        </linearGradient>
        <polygon id="path-2" points="0.218922662 0.119576256 17.541378 0.119576256 17.541378 11.4032986 0.218922662 11.4032986"></polygon>
        <polygon id="path-4" points="0.218893678 0.119576256 17.541349 0.119576256 17.541349 11.4032986 0.218893678 11.4032986"></polygon>
        <polygon id="path-6" points="1.05088741e-05 0.131771451 11.7043508 0.131771451 11.7043508 14.9261577 1.05088741e-05 14.9261577"></polygon>
        <polygon id="path-8" points="0.00614619441 0.206190204 22.9240112 0.206190204 22.9240112 36.3036603 0.00614619441 36.3036603"></polygon>
        <polygon id="path-10" points="0 207.606714 87.9442783 207.606714 87.9442783 0 0 0"></polygon>
        <polygon id="path-12" points="0 0.0722416792 24.2807347 0.0722416792 24.2807347 49.6504541 0 49.6504541"></polygon>
        <polygon id="path-14" points="0.0490339445 0.28855801 21.6777661 0.28855801 21.6777661 1.94972214 0.0490339445 1.94972214"></polygon>
    </defs>
    <g id="Home-Page---1440px" stroke="none" stroke-width="1" fill="none" fill-rule="evenodd" transform="translate(-858.000000, -925.000000)">
        <g id="Group-11" transform="translate(79.000000, 674.000000)">
            <g id="Group-9" transform="translate(201.000000, 250.000000)">
                <g id="Group-2" transform="translate(578.000000, 17.000000)">
                    <ellipse id="Oval-3" fill="url(#linearGradient-1)" opacity="0.256057518" cx="134" cy="193.301444" rx="133.550336" ry="9.88546256"></ellipse>
                    <g id="Group" transform="translate(36.872483, -15.277533)">
                        <g id="Group-6" transform="translate(157.429435, 111.573982) scale(-1, 1) translate(-157.429435, -111.573982) translate(109.811890, 14.633209)">
                            <g id="Page-1" transform="translate(0.000000, 0.000000)">
                                <polygon id="Fill-1" fill="#F9BFB2" points="33.3380817 166.261013 34.3563119 184.080884 38.167529 184.082468 39.5633872 168.00445"></polygon>
                                <polygon id="Fill-2" fill="#F9BFB2" points="50.3616769 166.261013 49.3434467 184.080884 45.5322296 184.082468 44.1363714 168.00445"></polygon>
                                <g id="Group-54" transform="translate(0.000000, 0.184987)">
                                    <path d="M46.133735,192.562436 L44.5028516,192.562436 C44.0779009,192.562436 43.730445,192.215585 43.730445,191.791763 L43.730445,187.532631 L46.9064592,187.532631 L46.9064592,191.791763 C46.9064592,192.215585 46.5586857,192.562436 46.133735,192.562436" id="Fill-3" fill="#353D46"></path>
                                    <g id="Group-7" transform="translate(43.511395, 181.185745)">
                                        <mask id="mask-3" fill="white">
                                            <use xlink:href="#path-2"></use>
                                        </mask>
                                        <g id="Clip-6"></g>
                                        <path d="M16.0834315,11.3844515 C14.375371,11.3983889 7.57774769,11.4224625 7.30334006,11.3768493 C7.12326005,11.3467573 6.53792062,10.7179921 5.9976806,10.096829 C5.27196134,9.26280445 4.40236864,8.56530268 3.42510905,8.04676935 L0.218922662,6.34704434 L0.218922662,6.04010555 C0.218922662,5.41197385 0.337705596,4.7895438 0.568919433,4.20512475 L0.701041626,3.87157826 C0.976402062,3.17534353 1.09169138,2.42652692 1.03833434,1.68024438 L0.939242695,0.29917821 L2.19535633,0.263701281 C2.43482781,0.257049357 2.67271127,0.306780409 2.88931545,0.40877658 L2.96458698,0.444253509 C3.72714801,0.803774174 4.6177024,0.769881036 5.35072649,0.353343878 C5.56796587,0.229808143 5.81188376,0.16170511 6.06151848,0.154736427 L7.30334006,0.119576256 L7.66254727,2.40403708 C7.70288265,2.55006266 7.75338128,2.69292065 7.79308145,2.83862946 C8.79416115,6.51112514 12.4389551,8.06134023 15.4034468,9.02555248 L15.4637911,9.0451915 L17.1245289,9.59730121 C17.279836,9.64893281 17.4043358,9.76613338 17.4653153,9.9178606 C17.7311477,10.5808357 17.2696728,11.309063 16.5553872,11.3543595 L16.0834315,11.3844515 Z" id="Fill-5" fill="#AF897B" mask="url(#mask-3)"></path>
                                    </g>
                                    <path d="M49.1295422,181.422268 C49.0374377,181.453311 48.9472389,181.490688 48.8621218,181.538835 C48.1294153,181.955372 47.2385433,181.989582 46.4759823,181.630062 L46.4003931,181.594585 C46.2587429,181.527749 46.1078822,181.48562 45.9535279,181.465031 L45.9535279,184.846109 C45.9535279,185.717194 46.6681311,186.4299 47.541535,186.4299 C48.414939,186.4299 49.1295422,185.717194 49.1295422,184.846109 L49.1295422,181.422268 Z" id="Fill-8" fill="#353D46"></path>
                                    <path d="M37.6876332,192.562436 L39.3185165,192.562436 C39.7434672,192.562436 40.0909232,192.215585 40.0909232,191.791763 L40.0909232,187.532631 L36.9149089,187.532631 L36.9149089,191.791763 C36.9149089,192.215585 37.2626825,192.562436 37.6876332,192.562436" id="Fill-10" fill="#353D46"></path>
                                    <g id="Group-14" transform="translate(22.549701, 181.185745)">
                                        <mask id="mask-5" fill="white">
                                            <use xlink:href="#path-4"></use>
                                        </mask>
                                        <g id="Clip-13"></g>
                                        <path d="M1.67684025,11.3844515 C3.38490071,11.3983889 10.182524,11.4224625 10.4569316,11.3768493 C10.6370117,11.3467573 11.2223511,10.7179921 11.7625911,10.096829 C12.4883104,9.26280445 13.3579031,8.56530268 14.3351627,8.04676935 L17.541349,6.34704434 L17.541349,6.04010555 C17.541349,5.41197385 17.4225661,4.7895438 17.1913523,4.20512475 L17.0592301,3.87157826 C16.7838696,3.17534353 16.6685803,2.42652692 16.7219374,1.68024438 L16.821029,0.29917821 L15.5649154,0.263701281 C15.3254439,0.257049357 15.0875604,0.306780409 14.8709563,0.40877658 L14.7956847,0.444253509 C14.0331237,0.803774174 13.1425693,0.769881036 12.4095452,0.353343878 C12.1923058,0.229808143 11.9483879,0.16170511 11.6987532,0.154736427 L10.4569316,0.119576256 L10.0977244,2.40403708 C10.0573891,2.55006266 10.0068904,2.69292065 9.96719025,2.83862946 C8.96611056,6.51112514 5.3213166,8.06134023 2.3568249,9.02555248 L2.29648063,9.0451915 L0.635742773,9.59730121 C0.480435676,9.64893281 0.355935917,9.76613338 0.294956444,9.9178606 C0.0291240507,10.5808357 0.490598922,11.309063 1.20488453,11.3543595 L1.67684025,11.3844515 Z" id="Fill-12" fill="#AF897B" mask="url(#mask-5)"></path>
                                    </g>
                                    <path d="M34.691826,181.422268 C34.7839304,181.453311 34.8741292,181.490688 34.9592464,181.538835 C35.6919529,181.955372 36.5828249,181.989582 37.3453859,181.630062 L37.4209751,181.594585 C37.5626253,181.527749 37.713486,181.48562 37.8678403,181.465031 L37.8678403,184.846109 C37.8678403,185.717194 37.1532371,186.4299 36.2798331,186.4299 C35.4064292,186.4299 34.691826,185.717194 34.691826,184.846109 L34.691826,181.422268 Z" id="Fill-15" fill="#353D46"></path>
                                    <path d="M26.8215674,85.3839406 L33.057989,176.100666 C33.057989,176.100666 39.9877345,179.28377 39.9877345,176.100666 C39.9877345,172.917561 43.1059453,85.3839406 43.1059453,85.3839406 L26.8215674,85.3839406 Z" id="Fill-17" fill="#353D46"></path>
                                    <path d="M57.3112725,85.3839406 L51.0748509,176.100666 C51.0748509,176.100666 44.1451054,179.28377 44.1451054,176.100666 C44.1451054,172.917561 41.0268946,85.3839406 41.0268946,85.3839406 L57.3112725,85.3839406 Z" id="Fill-19" fill="#2D343D"></path>
                                    <polygon id="Fill-23" fill="#FF5B9E" points="54.3683142 43.3755822 92.0856556 35.181241 94.3088656 39.6158571 55.1489785 56.5486095"></polygon>
                                    <g id="Group-27">
                                        <mask id="mask-7" fill="white">
                                            <use xlink:href="#path-6"></use>
                                        </mask>
                                        <g id="Clip-26"></g>
                                        <path d="M7.0412236,14.9261577 L6.06301121,12.1852482 L5.44273563,11.5960777 C4.88820354,11.0696254 4.40640217,10.4715858 4.0103532,9.81779666 L2.91335787,8.00783976 L0.313472607,5.92040259 C0.251540329,5.8709883 0.200406499,5.80922043 0.163247133,5.73953361 L0.0686019079,5.56151544 C-0.0832115734,5.27643298 0.025408114,4.92261396 0.311249397,4.7712035 L0.3118846,4.77088674 C0.488788594,4.67744304 0.701263947,4.68029387 0.87562713,4.7788057 L3.68576454,6.36829882 L1.51273559,3.19248015 C1.42126638,3.05880815 1.39585826,2.89092626 1.44318088,2.73634821 L1.44349848,2.73571469 C1.51082998,2.51651795 1.71123648,2.36479073 1.94086231,2.35940584 L2.11808391,2.35497122 C2.27656702,2.35117012 2.4286981,2.41768936 2.53287137,2.53647372 L4.45785361,4.72875789 L3.41358012,1.13165069 C3.37165673,0.986892144 3.38372559,0.831363822 3.44819867,0.694840996 L3.44819867,0.694524238 C3.60255297,0.366679402 4.00400117,0.239342568 4.31969699,0.417994246 L4.58489418,0.568137678 C4.7014539,0.634023404 4.79355831,0.735702816 4.84755055,0.857971518 L6.27008734,4.07686931 L5.65425818,1.03408913 C5.60534756,0.793352826 5.67776068,0.54374729 5.84767744,0.365729128 L5.84767744,0.365412369 C6.13542433,0.0641752306 6.61341448,0.0524551737 6.91545343,0.339438189 L7.02693154,0.44523546 C7.13968004,0.552299763 7.21685719,0.691990172 7.24702932,0.84466767 L8.25223783,5.91438418 C8.29733724,6.1421334 8.58127291,6.22449056 8.74197923,6.0562919 L9.74782295,5.00275381 C9.87835713,4.86623099 10.021913,4.74269525 10.1765849,4.63436391 L10.7260353,4.24918583 C10.9680476,4.07972014 11.2961299,4.10411053 11.5105109,4.30746935 L11.5117813,4.30873639 C11.6696292,4.45856306 11.7369607,4.67997711 11.6893205,4.89188841 C11.4971716,5.74618553 11.1862398,6.56944034 10.7651003,7.33789596 L9.26125756,10.0813396 L10.5434145,12.2128061 L7.0412236,14.9261577 Z" id="Fill-25" fill="#F9BFB2" mask="url(#mask-7)"></path>
                                    </g>
                                    <polygon id="Fill-28" fill="#FF5B9E" points="31.113379 41.7206152 10.2799959 11.079635 6.19659437 13.9070195 29.6841726 59.0827708"></polygon>
                                    <path d="M51.7467685,18.0705856 C51.2100221,15.5998709 48.7238381,13.9242195 46.2538518,14.4928007 C43.8438922,15.0474444 42.3076541,17.4544907 42.8329669,19.8723068 L45.401092,31.6911923 C45.9308512,34.1289641 48.3639957,35.691216 50.8082563,35.1628632 L50.9429193,35.1337214 C57.4067435,33.7368174 56.356118,28.901502 56.356118,28.901502 L55.8625653,29.074452 C55.0113935,29.3728383 54.0909846,28.8593731 53.9001061,27.9803689 L51.7467685,18.0705856 Z" id="Fill-30" fill="#B20828"></path>
                                    <polygon id="Fill-32" fill="#EDACA2" points="38.6336726 52.7475416 45.9385054 52.7475416 45.9385054 37.2263851 38.6336726 37.2263851"></polygon>
                                    <path d="M42.1272883,21.7053237 L34.1872526,21.7053237 L34.1872526,28.3572479 L34.1872526,33.335738 C34.1872526,35.7950494 35.3080681,38.1206888 37.2333679,39.6569666 L38.5850796,40.7352118 C40.6558409,42.3877398 43.5987357,42.3877398 45.669497,40.7352118 L47.0212086,39.6569666 C48.9465085,38.1206888 50.0673239,35.7950494 50.0673239,33.335738 L50.0673239,28.3572479 L50.0673239,21.7053237 L42.1272883,21.7053237 Z" id="Fill-34" fill="#F9BFB2"></path>
                                    <path d="M36.728064,44.5118893 L38.5853972,44.0760299 C40.9150036,43.529305 43.3395729,43.529305 45.6691794,44.0760299 L47.5265125,44.5118893 L47.2089111,52.7476049 L38.951274,53.6978798 L36.728064,44.5118893 Z" id="Fill-35" fill="#EDACA2"></path>
                                    <path d="M39.6725151,31.9433002 C39.6725151,32.3807434 39.3171191,32.735196 38.8785115,32.735196 C38.4399039,32.735196 38.084508,32.3807434 38.084508,31.9433002 C38.084508,31.505857 38.4399039,31.1514045 38.8785115,31.1514045 C39.3171191,31.1514045 39.6725151,31.505857 39.6725151,31.9433002" id="Fill-36" fill="#1D1F22"></path>
                                    <path d="M46.1833443,31.9433002 C46.1833443,32.3807434 45.8279483,32.735196 45.3893407,32.735196 C44.9507332,32.735196 44.5953372,32.3807434 44.5953372,31.9433002 C44.5953372,31.505857 44.9507332,31.1514045 45.3893407,31.1514045 C45.8279483,31.1514045 46.1833443,31.505857 46.1833443,31.9433002" id="Fill-37" fill="#1D1F22"></path>
                                    <path d="M39.9134158,37.058725 C39.6701331,37.175292 39.5815223,37.4454868 39.7165029,37.6583484 C40.0353747,38.1616773 40.7741156,38.9811311 42.2023692,38.9811311 C43.6363397,38.9811311 44.3144187,38.1556589 44.5948608,37.6526468 C44.7133261,37.4401019 44.6240801,37.1835277 44.3884198,37.069178 C43.9377434,36.8509315 43.2361619,37.1699071 42.2573143,37.1699071 C41.2940292,37.1699071 40.3685386,36.8407953 39.9134158,37.058725" id="Fill-38" fill="#EF435D"></path>
                                    <path d="M43.8136883,37.4865704 C43.9432697,37.4865704 44.0010731,37.6490674 43.9003935,37.7304743 L43.7993962,37.8121979 C43.6393251,37.9414353 43.4621035,38.0507169 43.2731307,38.1368752 C43.0841578,38.2230334 42.8827985,38.2867018 42.6747696,38.3253464 C42.3600266,38.3833131 42.0354379,38.3833131 41.7206949,38.3253464 L41.6476466,38.3117257 C41.2770057,38.2429892 40.9292322,38.0960133 40.631322,37.881568 L40.4277395,37.7352256 C40.3194374,37.6573031 40.3747001,37.4865704 40.5084103,37.4865704 L40.6741982,37.5179295 C41.7124373,37.7149531 42.7795781,37.7041833 43.8136883,37.4865704 Z" id="Fill-39" fill="#FDFFFE"></path>
                                    <path d="M42.5553197,35.5860206 L41.7492473,35.5860206 C41.2252049,35.5860206 40.796443,35.1583969 40.796443,34.6357457 C40.796443,34.1130945 41.2252049,33.6854708 41.7492473,33.6854708 L42.5553197,33.6854708 C43.0793621,33.6854708 43.508124,34.1130945 43.508124,34.6357457 C43.508124,35.1583969 43.0793621,35.5860206 42.5553197,35.5860206" id="Fill-40" fill="#E39E8F"></path>
                                    <path d="M37.3215,33.7033414 C37.3215,33.8520636 37.2007786,33.9729398 37.0515403,33.9729398 C36.9026189,33.9729398 36.7818975,33.8520636 36.7818975,33.7033414 C36.7818975,33.5546193 36.9026189,33.433743 37.0515403,33.433743 C37.2007786,33.433743 37.3215,33.5546193 37.3215,33.7033414" id="Fill-41" fill="#FF7A7A"></path>
                                    <path d="M38.3672345,34.1973893 C38.3672345,34.3461115 38.2465131,34.4669877 38.0972748,34.4669877 C37.9483533,34.4669877 37.8276319,34.3461115 37.8276319,34.1973893 C37.8276319,34.0486672 37.9483533,33.9277909 38.0972748,33.9277909 C38.2465131,33.9277909 38.3672345,34.0486672 38.3672345,34.1973893" id="Fill-42" fill="#FF7A7A"></path>
                                    <path d="M37.3765404,34.7462998 C37.3765404,34.8950219 37.255819,35.0158982 37.1065807,35.0158982 C36.9576592,35.0158982 36.8369378,34.8950219 36.8369378,34.7462998 C36.8369378,34.5975777 36.9576592,34.4767014 37.1065807,34.4767014 C37.255819,34.4767014 37.3765404,34.5975777 37.3765404,34.7462998" id="Fill-43" fill="#FF7A7A"></path>
                                    <path d="M46.9318038,33.7033414 C46.9318038,33.8520636 47.0525252,33.9729398 47.2017635,33.9729398 C47.350685,33.9729398 47.4714064,33.8520636 47.4714064,33.7033414 C47.4714064,33.5546193 47.350685,33.433743 47.2017635,33.433743 C47.0525252,33.433743 46.9318038,33.5546193 46.9318038,33.7033414" id="Fill-44" fill="#FF7A7A"></path>
                                    <path d="M45.8860694,34.1973893 C45.8860694,34.3461115 46.0067908,34.4669877 46.1560291,34.4669877 C46.3049505,34.4669877 46.4256719,34.3461115 46.4256719,34.1973893 C46.4256719,34.0486672 46.3049505,33.9277909 46.1560291,33.9277909 C46.0067908,33.9277909 45.8860694,34.0486672 45.8860694,34.1973893" id="Fill-45" fill="#FF7A7A"></path>
                                    <path d="M46.8767635,34.7462998 C46.8767635,34.8950219 46.9974849,35.0158982 47.1467232,35.0158982 C47.2956446,35.0158982 47.4163661,34.8950219 47.4163661,34.7462998 C47.4163661,34.5975777 47.2956446,34.4767014 47.1467232,34.4767014 C46.9974849,34.4767014 46.8767635,34.5975777 46.8767635,34.7462998" id="Fill-46" fill="#FF7A7A"></path>
                                    <path d="M51.6746412,24.3917508 C50.8590407,19.5558019 46.4030927,16.0784293 41.4993267,16.4398505 C36.0800936,16.838966 32.0938781,21.613147 32.6404702,26.969213 C32.733845,27.884011 32.9558484,28.7538293 33.2826602,29.5669478 L35.3178502,28.5124595 L35.2562355,27.9080846 C35.2006553,27.3629436 35.6589541,26.9030106 36.2061814,26.9555924 L38.5303886,27.0693087 L39.2329229,25.0379377 L39.8309664,27.2425754 L39.8522457,27.3056103 C41.4231024,27.4560705 43.0066631,27.4190098 44.5689445,27.1944282 L47.927262,26.7116885 C48.4249434,26.6401012 48.8819719,26.9961375 48.9327881,27.4950318 L49.0369613,28.5153103 L50.526512,30.7798153 C51.5984168,28.9270961 52.0640205,26.6999685 51.6746412,24.3917508" id="Fill-49" fill="#CC1127"></path>
                                    <path d="M49.8564365,20.1603668 C49.8564365,20.0194093 49.8497669,19.8768681 49.8351572,19.7336934 C49.6039434,17.468238 47.5751055,15.8188776 45.3039377,16.0497944 C44.7462296,16.1061774 44.2266337,16.2721587 43.7623004,16.5217642 C46.2005265,16.9088429 48.3830835,18.240178 49.8564365,20.1603668" id="Fill-50" fill="#1C1C1A"></path>
                                    <path d="M34.504854,32.1583158 C33.8061309,32.1583158 33.2344483,31.5881508 33.2344483,30.8912826 L33.2344483,29.3074911 C33.2344483,28.6106228 33.8061309,28.0404579 34.504854,28.0404579 C35.2035772,28.0404579 35.7752598,28.6106228 35.7752598,29.3074911 L35.7752598,30.8912826 C35.7752598,31.5881508 35.2035772,32.1583158 34.504854,32.1583158" id="Fill-51" fill="#F9BFB2"></path>
                                    <path d="M49.7497225,32.1583158 C49.0509993,32.1583158 48.4793168,31.5881508 48.4793168,30.8912826 L48.4793168,29.3074911 C48.4793168,28.6106228 49.0509993,28.0404579 49.7497225,28.0404579 C50.4484456,28.0404579 51.0201282,28.6106228 51.0201282,29.3074911 L51.0201282,30.8912826 C51.0201282,31.5881508 50.4484456,32.1583158 49.7497225,32.1583158" id="Fill-52" fill="#F9BFB2"></path>
                                    <path d="M54.3683142,43.3755822 L47.3925164,44.0924063 C45.6209357,44.1950359 47.2089428,49.8966853 42.2861207,49.8966853 C42.2311757,49.8966853 42.1809947,49.8925674 42.12732,49.8913004 C42.0736454,49.8925674 42.0234644,49.8966853 41.9682017,49.8966853 C37.0456972,49.8966853 38.6337043,44.1950359 36.8621236,44.0924063 L30.6072811,40.9761381 L26.5648502,85.3736143 L39.5166363,86.4281027 C41.2548689,86.5696936 43.0010415,86.5867986 44.741815,86.4794175 L57.538294,85.6903726 L54.3683142,43.3755822 Z" id="Fill-53" fill="#F83987"></path>
                                    <rect id="Rectangle" stroke-opacity="0.54" stroke="#FFFFFF" stroke-width="0.83119988" x="40.2641279" y="87.5312382" width="3.96040971" height="1.86804488"></rect>
                                </g>
                            </g>
                            <path d="M40.2655087,30.5466468 L37.1784228,30.5466468 C36.9040152,30.5466468 36.6639085,30.3085888 36.6639085,30.0365225 C36.6639085,29.7644562 36.9040152,29.5263982 37.1784228,29.5263982 L40.2655087,29.5263982 C40.5399163,29.5263982 40.780023,29.7644562 40.780023,30.0365225 C40.780023,30.3085888 40.5399163,30.5466468 40.2655087,30.5466468 Z" id="Shape" fill="#CC1127" fill-rule="nonzero"></path>
                            <path d="M47.2019238,30.5466468 L44.114838,30.5466468 C43.8404303,30.5466468 43.6003237,30.3085888 43.6003237,30.0365225 C43.6003237,29.7644562 43.8404303,29.5263982 44.114838,29.5263982 L47.2019238,29.5263982 C47.4763315,29.5263982 47.7164381,29.7644562 47.7164381,30.0365225 C47.7164381,30.3085888 47.4763315,30.5466468 47.2019238,30.5466468 Z" id="Shape" fill="#CC1127" fill-rule="nonzero"></path>
                        </g>
                        <g id="Page-1" transform="translate(57.110335, 0.000000)">
                            <path d="M15.904572,71.9240174 L20.6882521,64.7792496 L10.1701726,56.2972758 L1.5496497,68.1522454 C-0.243745131,70.6064762 -1.40181755,72.5687648 3.45044119,76.5984358 L22.4790591,92.394746 L22.9180267,82.7235356 L15.904572,71.9240174 Z" id="Fill-1" fill="#FCB3A2"></path>
                            <path d="M36.0653835,39.8478366 L20.2146717,69.1838412 L8.89273459,54.6770257 L17.5368718,46.7382515 C22.5709285,42.1147683 29.2227283,39.641195 36.0653835,39.8478366 Z" id="Fill-3" fill="#F8395B"></path>
                            <g id="Group-7" transform="translate(65.020267, 56.091086)">
                                <mask id="mask-9" fill="white">
                                    <use xlink:href="#path-8"></use>
                                </mask>
                                <g id="Clip-6"></g>
                                <path d="M7.01960098,15.8329318 L2.23592083,8.68816403 L12.7540004,0.206190204 L21.3745232,12.0611598 C23.1679181,14.5153906 24.3259905,16.4776792 19.4737317,20.5073502 L0.445113869,36.3036603 L0.00614619441,26.63245 L7.01960098,15.8329318 Z" id="Fill-5" fill="#FCB3A2" mask="url(#mask-9)"></path>
                            </g>
                            <path d="M51.8790565,39.8478366 L67.7297684,69.1838412 L79.0517055,54.6770257 L70.4075683,46.7382515 C65.3735116,42.1147683 58.7217118,39.641195 51.8790565,39.8478366 Z" id="Fill-8" fill="#F8395B"></path>
                            <path d="M66.6398864,98.8622389 L21.2625331,98.8622389 C19.2792532,98.8622389 17.6563344,97.5179407 17.6563344,95.874802 L17.8012552,69.0226866 L18.9195391,56.4630081 C19.2203791,47.0709734 27.0305748,39.6109241 36.5623519,39.6109241 L51.5503322,39.6109241 C61.118016,39.6109241 68.9440623,47.1254546 69.1960563,56.5545622 L70.1969155,69.0226866 L70.2460851,95.874802 C70.2460851,97.5179407 68.6231663,98.8622389 66.6398864,98.8622389" id="Fill-10" fill="#F8395B"></path>
                            <path d="M50.2617987,38.9661123 L50.2617987,40.3187923 C50.2617987,43.579602 47.8285527,46.4081086 44.5717166,46.7227454 C40.8254494,47.0844486 37.6407502,44.1266701 37.6407502,40.4638604 L37.6582183,38.9661123 L36.4063356,38.9661123 C35.9262855,38.9661123 35.5371343,39.3539278 35.5371343,39.8323304 L35.5371343,40.2852654 C35.5371343,44.7014624 38.891986,48.4977348 43.3110998,48.8252665 C48.2387303,49.1905159 52.3654146,45.2981761 52.3654146,40.4638604 L52.3654146,39.8323304 C52.3654146,39.3539278 51.9762634,38.9661123 51.4962133,38.9661123 L50.2617987,38.9661123 Z" id="Fill-12" fill="#F8395B"></path>
                            <path d="M48.2487906,195.148196 C47.7095429,195.183657 47.3055115,195.619829 47.346594,196.121765 C47.3951166,196.707518 47.4112908,197.523768 47.2786624,198.409006 C47.1094803,199.539893 46.6666308,202.898382 46.7475018,204.08246 C46.8555454,205.666605 47.3695613,206.333918 47.3695613,206.333918 L68.9595249,206.333918 L69.257777,205.645006 C69.5427664,204.331655 68.8579509,202.991226 67.569191,202.394512 C67.3356356,202.286194 67.2366495,202.276201 67.1121082,202.264918 C66.9510132,202.250733 64.442072,202.11179 62.2993145,201.916109 C60.3994935,201.742672 58.7849853,200.550212 58.1713363,198.867744 L57.1627134,196.104034 C56.8392295,195.217507 55.9147125,194.645616 54.9115888,194.71138 L48.2487906,195.148196 Z" id="Fill-14" fill="#EA9351"></path>
                            <path d="M56.5222153,197.95043 C56.5222153,198.274737 56.2398138,198.537794 55.8910981,198.537794 C55.542706,198.537794 55.259981,198.274737 55.259981,197.95043 C55.259981,197.626122 55.542706,197.363065 55.8910981,197.363065 C56.2398138,197.363065 56.5222153,197.626122 56.5222153,197.95043" id="Fill-16" fill="#120F0F"></path>
                            <path d="M57.4457942,199.669648 C57.4457942,199.993956 57.1633927,200.257013 56.8146771,200.257013 C56.4662849,200.257013 56.1835599,199.993956 56.1835599,199.669648 C56.1835599,199.34534 56.4662849,199.082283 56.8146771,199.082283 C57.1633927,199.082283 57.4457942,199.34534 57.4457942,199.669648" id="Fill-18" fill="#120F0F"></path>
                            <path d="M58.5540824,201.388867 C58.5540824,201.713175 58.271681,201.976232 57.9229653,201.976232 C57.5745731,201.976232 57.2918482,201.713175 57.2918482,201.388867 C57.2918482,201.064559 57.5745731,200.801502 57.9229653,200.801502 C58.271681,200.801502 58.5540824,201.064559 58.5540824,201.388867" id="Fill-20" fill="#120F0F"></path>
                            <polygon id="Fill-22" fill="#000000" points="55.9544686 198.111971 55.8279864 197.788953 57.5589489 197.201588 57.6854311 197.524606"></polygon>
                            <polygon id="Fill-24" fill="#000000" points="56.9756427 199.743375 56.8384855 199.423903 58.1880604 198.922612 58.3252176 199.241762"></polygon>
                            <polygon id="Fill-26" fill="#000000" points="58.038999 201.522781 57.807061 201.254889 59.0570029 200.317426 59.2889408 200.585319"></polygon>
                            <path d="M69.1055455,207.606714 L47.3855414,207.606714 C47.0345614,207.606714 46.7469842,207.320446 46.7469842,206.970348 C46.7469842,206.62025 47.0345614,206.333983 47.3855414,206.333983 L69.1055455,206.333983 C69.456849,206.333983 69.7441028,206.62025 69.7441028,206.970348 C69.7441028,207.320446 69.456849,207.606714 69.1055455,207.606714" id="Fill-28" fill="#120F0F"></path>
                            <path d="M38.9890635,195.148196 C39.5283112,195.183657 39.9323426,195.619829 39.8912602,196.121765 C39.8427376,196.707518 39.8265634,197.523768 39.9591918,198.409006 C40.1283739,199.539893 40.5712234,202.898382 40.4903524,204.08246 C40.3823088,205.666605 39.8682928,206.333918 39.8682928,206.333918 L18.2783293,206.333918 L17.9800771,205.645006 C17.6950878,204.331655 18.3799032,202.991226 19.6686632,202.394512 C19.9022185,202.286194 20.0012046,202.276201 20.1257459,202.264918 C20.2868409,202.250733 22.7957822,202.11179 24.9385396,201.916109 C26.8383607,201.742672 28.4528689,200.550212 29.0665179,198.867744 L30.0751407,196.104034 C30.3986247,195.217507 31.3231417,194.645616 32.3262653,194.71138 L38.9890635,195.148196 Z" id="Fill-30" fill="#EA9351"></path>
                            <path d="M30.7156389,197.95043 C30.7156389,198.274737 30.9980403,198.537794 31.346756,198.537794 C31.6951482,198.537794 31.9778731,198.274737 31.9778731,197.95043 C31.9778731,197.626122 31.6951482,197.363065 31.346756,197.363065 C30.9980403,197.363065 30.7156389,197.626122 30.7156389,197.95043" id="Fill-32" fill="#120F0F"></path>
                            <path d="M29.79206,199.669648 C29.79206,199.993956 30.0744614,200.257013 30.4231771,200.257013 C30.7715693,200.257013 31.0542942,199.993956 31.0542942,199.669648 C31.0542942,199.34534 30.7715693,199.082283 30.4231771,199.082283 C30.0744614,199.082283 29.79206,199.34534 29.79206,199.669648" id="Fill-34" fill="#120F0F"></path>
                            <path d="M28.6837717,201.388867 C28.6837717,201.713175 28.9661732,201.976232 29.3148888,201.976232 C29.663281,201.976232 29.946006,201.713175 29.946006,201.388867 C29.946006,201.064559 29.663281,200.801502 29.3148888,200.801502 C28.9661732,200.801502 28.6837717,201.064559 28.6837717,201.388867" id="Fill-36" fill="#120F0F"></path>
                            <polygon id="Fill-38" fill="#000000" points="31.2833532 198.111971 31.4098354 197.788953 29.6788729 197.201588 29.5523907 197.524606"></polygon>
                            <polygon id="Fill-40" fill="#000000" points="30.2622115 199.743375 30.3993687 199.423903 29.0497938 198.922612 28.9126366 199.241762"></polygon>
                            <polygon id="Fill-42" fill="#000000" points="29.1988228 201.522781 29.4307608 201.254889 28.1808189 200.317426 27.948881 200.585319"></polygon>
                            <path d="M18.1323086,207.606714 L39.8523127,207.606714 C40.2032928,207.606714 40.49087,207.320446 40.49087,206.970348 C40.49087,206.62025 40.2032928,206.333983 39.8523127,206.333983 L18.1323086,206.333983 C17.7810051,206.333983 17.4937514,206.62025 17.4937514,206.970348 C17.4937514,207.320446 17.7810051,207.606714 18.1323086,207.606714" id="Fill-44" fill="#120F0F"></path>
                            <path d="M20.6712369,103.953422 L30.0697386,195.546231 C30.0697386,195.546231 40.5124463,198.759974 40.5124463,195.546231 C40.5124463,192.332488 45.2116972,103.953422 45.2116972,103.953422 L20.6712369,103.953422 Z" id="Fill-46" fill="#24272B"></path>
                            <path d="M66.6195393,103.953422 L57.2210376,195.546231 C57.2210376,195.546231 46.7783298,198.759974 46.7783298,195.546231 C46.7783298,192.332488 42.0790789,103.953422 42.0790789,103.953422 L66.6195393,103.953422 Z" id="Fill-48" fill="#1D1F22"></path>
                            <mask id="mask-11" fill="white">
                                <use xlink:href="#path-10"></use>
                            </mask>
                            <g id="Clip-51"></g>
                            <polygon id="Fill-50" fill="#000000" mask="url(#mask-11)" points="20.6298633 103.953261 66.6082497 103.953261 66.6082497 98.8620132 20.6298633 98.8620132"></polygon>
                            <path d="M47.6024698,105.15133 L39.7185198,105.15133 C38.828939,105.15133 38.1011002,104.425989 38.1011002,103.539462 L38.1011002,99.27607 C38.1011002,98.3895424 38.828939,97.6642016 39.7185198,97.6642016 L47.6024698,97.6642016 C48.4920505,97.6642016 49.2198893,98.3895424 49.2198893,99.27607 L49.2198893,103.539462 C49.2198893,104.425989 48.4920505,105.15133 47.6024698,105.15133" id="Fill-52" fill="#4B4B4B" mask="url(#mask-11)"></path>
                            <path d="M70.124811,69.0428027 L66.8236576,69.0428027 C61.697408,69.0428027 59.3625011,63.1427197 59.3625011,55.4225148 L59.2386067,40.5127323 L52.7576065,39.6310403 L52.4354165,47.5862555 C52.3396653,49.9453861 51.2168526,52.1365599 49.3749352,53.5588726 L49.0779769,53.7884027 C47.5259011,54.986988 45.5659121,55.3880209 43.7356401,55.3606191 C41.8862825,55.3880209 40.0828597,54.986988 38.5311073,53.7884027 L38.2338256,53.5588726 C36.3919082,52.1365599 35.2690955,49.9453861 35.1733443,47.5862555 L34.8511543,39.6310403 L28.3701541,40.5127323 L28.3080451,55.4225148 C28.3080451,63.1427197 25.9113528,69.0428027 20.7851032,69.0428027 L17.4839498,69.0428027 L16.3976908,95.8949182 C16.3976908,97.5380568 18.0607217,98.882355 20.0928476,98.882355 L42.9997142,98.882355 L43.8045421,98.882355 L44.6090466,98.882355 L67.5159132,98.882355 C69.5480392,98.882355 71.21107,97.5380568 71.21107,95.8949182 L70.124811,69.0428027 Z" id="Fill-53" fill="#FED45B" mask="url(#mask-11)"></path>
                            <polygon id="Fill-54" fill="#FFFFFF" mask="url(#mask-11)" points="70.6812357 80.7087002 17.316094 80.7087002 17.497245 76.3050757 70.5000847 76.3050757"></polygon>
                            <polygon id="Fill-55" fill="#FFFFFF" mask="url(#mask-11)" points="71.1082344 90.9860052 16.8890953 90.9860052 17.0702463 86.5823808 70.9270834 86.5823808"></polygon>
                            <polygon id="Fill-56" fill="#EFAB22" mask="url(#mask-11)" points="43.1724869 98.8623356 44.2985344 98.8623356 44.2985344 55.3605869 43.1724869 55.3605869"></polygon>
                            <path d="M35.0061678,19.0506402 L32.0010022,19.0506402 L32.0010022,16.1244544 C32.0010022,15.5902812 32.4354411,15.1573333 32.971454,15.1573333 L35.0061678,15.1573333 L35.0061678,19.0506402 Z" id="Fill-57" fill="#332612" mask="url(#mask-11)"></path>
                            <path d="M55.7415192,19.0506402 L52.7363536,19.0506402 L52.7363536,15.1573333 L54.7710674,15.1573333 C55.3070803,15.1573333 55.7415192,15.5902812 55.7415192,16.1244544 L55.7415192,19.0506402 Z" id="Fill-58" fill="#332612" mask="url(#mask-11)"></path>
                            <path d="M44.1534519,46.6028546 L43.7840333,46.6028546 C40.4149483,46.6028546 37.6582183,43.8555861 37.6582183,40.4980643 L37.6582183,30.5502573 C37.6582183,28.6314892 39.233585,27.0615294 41.1589613,27.0615294 L46.7788474,27.0615294 C48.7039001,27.0615294 50.2792668,28.6314892 50.2792668,30.5502573 L50.2792668,40.4980643 C50.2792668,43.8555861 47.5225369,46.6028546 44.1534519,46.6028546" id="Fill-59" fill="#FCB3A2" mask="url(#mask-11)"></path>
                            <path d="M47.6149239,36.7314825 L39.8914219,36.7314825 C35.9678855,36.7314825 32.7576311,33.5322461 32.7576311,29.6221757 L32.7576311,15.3787396 C32.7576311,11.4686692 35.9678855,8.26943286 39.8914219,8.26943286 L47.6149239,8.26943286 C51.5384603,8.26943286 54.7487147,11.4686692 54.7487147,15.3787396 L54.7487147,29.6221757 C54.7487147,33.5322461 51.5384603,36.7314825 47.6149239,36.7314825" id="Fill-60" fill="#F9BFB2" mask="url(#mask-11)"></path>
                            <path d="M33.5656292,23.2433678 L32.3807077,23.2433678 C31.4021688,23.2433678 30.6015461,22.4454929 30.6015461,21.4703126 L30.6015461,18.9632125 C30.6015461,17.9880321 31.4021688,17.1901573 32.3807077,17.1901573 L33.5656292,17.1901573 C34.5441681,17.1901573 35.3447908,17.9880321 35.3447908,18.9632125 L35.3447908,21.4703126 C35.3447908,22.4454929 34.5441681,23.2433678 33.5656292,23.2433678" id="Fill-61" fill="#F9BFB2" mask="url(#mask-11)"></path>
                            <path d="M55.5568746,23.2433678 L54.371953,23.2433678 C53.3934141,23.2433678 52.5927914,22.4454929 52.5927914,21.4703126 L52.5927914,18.9632125 C52.5927914,17.9880321 53.3934141,17.1901573 54.371953,17.1901573 L55.5568746,17.1901573 C56.5354134,17.1901573 57.3360361,17.9880321 57.3360361,18.9632125 L57.3360361,21.4703126 C57.3360361,22.4454929 56.5354134,23.2433678 55.5568746,23.2433678" id="Fill-62" fill="#F9BFB2" mask="url(#mask-11)"></path>
                            <path d="M41.3016824,22.0537767 C41.3016824,22.6404968 40.8242201,23.1163203 40.2354794,23.1163203 C39.6467387,23.1163203 39.1692764,22.6404968 39.1692764,22.0537767 C39.1692764,21.4670566 39.6467387,20.991233 40.2354794,20.991233 C40.8242201,20.991233 41.3016824,21.4670566 41.3016824,22.0537767" id="Fill-63" fill="#1D1F22" mask="url(#mask-11)"></path>
                            <path d="M36.693557,20.0248857 C37.3055885,18.4858738 39.4253786,17.8823903 41.4325963,18.6754295" id="Stroke-64" stroke="#1D1F22" stroke-width="1.29078326" stroke-linecap="round" stroke-linejoin="round" mask="url(#mask-11)"></path>
                            <path d="M46.7413879,22.0537767 C46.7413879,22.6404968 47.2188502,23.1163203 47.8075909,23.1163203 C48.3963316,23.1163203 48.8737939,22.6404968 48.8737939,22.0537767 C48.8737939,21.4670566 48.3963316,20.991233 47.8075909,20.991233 C47.2188502,20.991233 46.7413879,21.4670566 46.7413879,22.0537767" id="Fill-65" fill="#1D1F22" mask="url(#mask-11)"></path>
                            <path d="M51.3495457,20.0248857 C50.7375141,18.4858738 48.617724,17.8823903 46.6105063,18.6754295" id="Stroke-66" stroke="#1D1F22" stroke-width="1.29078326" stroke-linecap="round" stroke-linejoin="round" mask="url(#mask-11)"></path>
                            <path d="M53.9801169,23.2417559 C53.9801169,26.883289 51.1564258,29.8626665 47.7054994,29.8626665 L39.9706755,29.8626665 C36.5197491,29.8626665 33.6960579,26.883289 33.6960579,23.2417559 L33.6960579,22.4841778 C33.6960579,22.2417528 33.504879,22.0454272 33.2693827,22.0454272 C33.0335629,22.0454272 32.8423839,22.2417528 32.8423839,22.4841778 L32.8423839,30.4468076 C32.8423839,34.0883407 35.666075,37.0677182 39.1170014,37.0677182 L39.6995959,37.2814519 C42.5724566,38.3362586 45.7406581,38.2598561 48.5591734,37.0677182 C52.0100999,37.0677182 54.833791,34.0883407 54.833791,30.4468076 L54.833791,22.4841778 C54.833791,22.2417528 54.642612,22.0454272 54.4067922,22.0454272 C54.1712959,22.0454272 53.9801169,22.2417528 53.9801169,22.4841778 L53.9801169,23.2417559 Z" id="Fill-67" fill="#332612" mask="url(#mask-11)"></path>
                            <path d="M48.1532011,32.5272784 L39.8898045,32.5272784 C38.5259963,32.5272784 37.4103003,31.4154116 37.4103003,30.0562841 L37.4103003,29.9073475 C37.4103003,28.5482201 38.5259963,27.4360309 39.8898045,27.4360309 L48.1532011,27.4360309 C49.5170093,27.4360309 50.6327053,28.5482201 50.6327053,29.9073475 L50.6327053,30.0562841 C50.6327053,31.4154116 49.5170093,32.5272784 48.1532011,32.5272784" id="Fill-68" fill="#332612" mask="url(#mask-11)"></path>
                            <path d="M40.4939431,29.5802027 L47.5630371,29.2800728 C47.9246921,29.2649212 48.1757156,29.6350062 48.026266,29.9638274 L48.0259426,29.9647945 C47.4106761,31.3174744 46.1552351,32.2717005 44.6837067,32.5050991 C43.0158237,32.7697679 41.3417944,32.0673156 40.3661669,30.693359 L40.1180547,30.3435836 C39.8958213,30.0305587 40.1096442,29.5966438 40.4939431,29.5802027" id="Fill-69" fill="#FFFFFF" mask="url(#mask-11)"></path>
                            <path d="M44.8150736,28.1016036 L43.2073585,28.1016036 C42.6910782,28.1016036 42.2689316,27.6809059 42.2689316,27.1663975 L42.2689316,23.579668 C42.2689316,23.0651596 42.6910782,22.644462 43.2073585,22.644462 L44.8150736,22.644462 C45.3313539,22.644462 45.7535004,23.0651596 45.7535004,23.579668 L45.7535004,27.1663975 C45.7535004,27.6809059 45.3313539,28.1016036 44.8150736,28.1016036" id="Fill-70" fill="#E39E8F" mask="url(#mask-11)"></path>
                            <path d="M45.9637973,27.1094019 L42.058376,27.1094019 C41.9005158,27.1094019 41.7711222,26.9804524 41.7711222,26.8228117 L41.7711222,26.4037259 C41.7711222,26.2460852 41.9005158,26.1171357 42.058376,26.1171357 L45.9637973,26.1171357 C46.1219809,26.1171357 46.2513745,26.2460852 46.2513745,26.4037259 L46.2513745,26.8228117 C46.2513745,26.9804524 46.1219809,27.1094019 45.9637973,27.1094019" id="Fill-71" fill="#E39E8F" mask="url(#mask-11)"></path>
                            <path d="M33.8744917,12.9359208 L54.2238944,12.9359208 C55.0918017,12.9359208 55.8697806,13.2937556 56.4083813,13.8604885 C56.977066,14.426899 57.3361331,15.2025301 57.3361331,16.0374779 L57.3361331,16.1867369 L57.1863601,16.1867369 L30.912026,16.1867369 L30.7622529,16.1867369 L30.7622529,16.0374779 C30.7622529,15.1725494 31.1213201,14.3972407 31.6900048,13.8604885 C32.2286055,13.2640972 33.0065843,12.9359208 33.8744917,12.9359208" id="Fill-72" fill="#FDC02F" mask="url(#mask-11)"></path>
                            <path d="M47.4306998,0.976985666 C51.7996736,2.40832479 54.9717569,6.52406953 54.9717569,11.3255031 L54.9717569,13.0850186 L33.126241,13.0850186 L33.126241,11.3255031 C33.126241,6.52406953 36.2983243,2.40832479 40.6676216,0.976985666 L41.1761383,8.82033723 C41.2062223,9.41672854 41.6849785,9.92382233 42.2834237,9.92382233 L45.8145742,9.92382233 C46.4133429,9.92382233 46.8920991,9.41672854 46.9218596,8.82033723 L47.4306998,0.976985666 Z" id="Fill-73" fill="#FED45B" mask="url(#mask-11)"></path>
                            <path d="M41.7149331,-3.22373677e-05 L46.383453,-3.22373677e-05 C47.0116587,-3.22373677e-05 47.5502595,0.507061557 47.4904149,1.10345286 L46.9220537,10.1099287 C46.8919697,10.70632 46.4132135,11.2134138 45.8147682,11.2134138 L42.2836178,11.2134138 C41.6848491,11.2134138 41.2060929,10.70632 41.1763324,10.1099287 L40.6076476,1.10345286 C40.5778871,0.507061557 41.1164878,-3.22373677e-05 41.7149331,-3.22373677e-05" id="Fill-74" fill="#FDC02F" mask="url(#mask-11)"></path>
                        </g>
                        <g id="Page-1" transform="translate(0.000000, 6.402029)">
                            <path d="M49.1186829,20.3976031 C49.109644,25.4226869 44.5495331,29.4878576 38.9334883,29.477784 C33.3177663,29.4677104 28.7721821,25.3856422 28.781221,20.3605583 C28.7902599,15.3354745 33.3503708,11.2703038 38.9664156,11.2803774 C44.5824604,11.2907759 49.1277218,15.3725192 49.1186829,20.3976031" id="Fill-1" fill="#1D1F22"></path>
                            <path d="M34.8566019,196.821818 L29.4975193,196.812069 C29.4620095,196.812069 29.4332788,196.782823 29.4332788,196.747078 L29.441672,192.002429 C29.441672,191.966685 29.4707255,191.937764 29.5062354,191.937764 L34.865318,191.947512 C34.9008278,191.947512 34.9295585,191.976758 34.9295585,192.012503 L34.9211653,196.757152 C34.9211653,196.792897 34.8921118,196.821818 34.8566019,196.821818" id="Fill-3" fill="#FAC1B9"></path>
                            <path d="M49.706145,196.848789 L44.3470624,196.83904 C44.3115525,196.83904 44.2828218,196.809794 44.2828218,196.774049 L44.2912151,192.029401 C44.2915379,191.993656 44.3202686,191.964735 44.3557785,191.964735 L49.7148611,191.974483 C49.7503709,191.974483 49.7791016,192.003729 49.7791016,192.039474 L49.7707084,196.784123 C49.7707084,196.819868 49.7416549,196.848789 49.706145,196.848789" id="Fill-5" fill="#FAC1B9"></path>
                            <polygon id="Fill-7" fill="#E4CEBC" points="16.2117011 102.432259 27.510291 189.009671 35.9035293 189.024944 39.6159231 99.0192709"></polygon>
                            <polygon id="Fill-9" fill="#EDDBCC" points="30.251329 100.626979 42.3598664 189.03648 50.7534275 188.726799 53.498662 98.0695937"></polygon>
                            <polygon id="Fill-11" fill="#996459" points="56.1981534 100.13331 16.2117979 102.432357 15.9538673 97.8901543 55.9405455 95.5914319"></polygon>
                            <g id="Group-15" transform="translate(0.000000, 0.252814)">
                                <mask id="mask-13" fill="white">
                                    <use xlink:href="#path-12"></use>
                                </mask>
                                <g id="Clip-14"></g>
                                <path d="M23.7212928,8.93733131 L22.9813965,8.78687775 C22.7731796,8.74463377 22.561089,8.72318682 22.3483527,8.72286187 L20.7087659,8.71961233 C20.4469614,8.71928738 20.2945918,8.42195475 20.4456701,8.20683541 L23.8136184,3.42286719 C23.9149829,3.27891271 23.9695389,3.10668725 23.9698617,2.9302374 L23.9701845,2.75638718 C23.9708302,2.28422947 23.5915204,1.90078411 23.1224675,1.9001342 C22.8454906,1.8994843 22.5856231,2.03531494 22.4261515,2.26343243 L20.4146797,5.14479679 L21.9461229,1.4637214 C22.0045527,1.32366636 22.0161741,1.16866345 21.9800186,1.02145943 L21.8977003,0.686757128 C21.7992412,0.288363904 21.3847444,0.0579717382 20.9973641,0.187303307 L20.9970413,0.187303307 C20.8356329,0.241245619 20.6990814,0.352379781 20.6128893,0.50023371 L18.4797155,4.16636124 L18.7828405,0.874255406 C18.7993042,0.695855831 18.7360321,0.519081024 18.6104563,0.392024131 L18.470031,0.250019369 C18.2873166,0.0657706268 18.0084029,0.0196272029 17.7769432,0.13563567 L17.7766204,0.13563567 C17.613275,0.217524 17.4957697,0.369602327 17.4573545,0.548976763 L16.5415231,4.81269412 L15.667335,1.26484974 C15.6131018,1.04485609 15.4507249,0.867756333 15.237343,0.795941567 L15.2366973,0.795616614 C14.8919289,0.679283193 14.5184298,0.866131564 14.4028614,1.2131821 L14.3305504,1.42992622 C14.3024654,1.51506408 14.2914896,1.60507625 14.2985916,1.69476347 L14.6036535,5.45902701 L13.9722237,7.77302224 C13.744315,8.60847817 13.6277781,9.47090526 13.6264869,10.3372318 L13.62455,11.3065687 L0.525287588,37.2810919 C-0.65977309,39.631157 0.225390729,42.5034227 2.52320111,43.7661927 L13.2329731,49.6504541 L17.7717781,38.9351062 C17.8450575,39.0293428 14.5294056,38.0405087 12.5098634,37.4315455 C11.6676342,37.1777567 11.1840545,36.2925828 11.4197108,35.4402293 L17.819555,12.2889037 L21.2259185,11.381308 C22.1801651,11.1268693 23.0937368,10.7395245 23.9408082,10.2299971 C24.1512848,10.1035901 24.2800887,9.87514765 24.2807344,9.6285078 L24.2807344,9.62655808 C24.2810572,9.29218074 24.047015,9.00362186 23.7212928,8.93733131" id="Fill-13" fill="#F9BFB2" mask="url(#mask-13)"></path>
                            </g>
                            <path d="M37.0554367,49.0081832 L35.4542651,48.8021625 C33.3411059,48.5298513 31.8332284,46.5668061 32.1034261,44.4393343 L33.2093966,35.7364246 C33.4795944,33.6089528 35.4300538,32.0910941 37.5435358,32.3634053 L39.1443845,32.5694259 C41.2578665,32.8417371 42.765744,34.8047823 42.4955463,36.9322541 L41.3895758,45.6351639 C41.1190552,47.7623107 39.1689186,49.2801694 37.0554367,49.0081832" id="Fill-16" fill="#E39E8F"></path>
                            <path d="M38.7559067,38.5761949 C34.1396257,38.5677461 30.3694476,34.7589639 30.3778409,30.1121261 L30.3888167,23.938006 C30.3926905,21.7933117 32.1391296,20.0418113 34.2697209,20.0457107 L43.3085929,20.0619584 C45.4391841,20.0658578 47.179167,21.8238573 47.1752932,23.9685516 L47.1643174,30.1426718 C47.1559241,34.7895095 43.3721878,38.5846437 38.7559067,38.5761949" id="Fill-18" fill="#F9BFB2"></path>
                            <path d="M47.7777662,25.5944249 L44.9531188,25.5892257 C44.2206473,25.5879259 43.6224677,24.983837 43.6237589,24.246517 L43.6282784,21.7281259 C43.6295697,20.990806 44.230009,20.3886668 44.9624805,20.3899666 L49.1187475,20.3977655 L49.1116455,24.2565906 C49.1103542,24.9935856 48.5102377,25.5957248 47.7777662,25.5944249" id="Fill-20" fill="#1D1F22"></path>
                            <path d="M30.691974,29.4628361 L30.3888489,29.4621862 C29.673164,29.4608864 29.0888655,28.8704456 29.0901567,28.1503482 L29.0937077,26.2204482 C29.094999,25.5000259 29.6815572,24.9115348 30.3969194,24.9128346 L30.7000444,24.9134845 C31.4157294,24.9147843 32.0003507,25.5052252 31.9990594,26.2256475 L31.9955084,28.1555474 C31.9942172,28.8759698 31.4076589,29.464136 30.691974,29.4628361" id="Fill-22" fill="#F9BFB2"></path>
                            <path d="M47.4784182,29.4933168 L47.1752932,29.4926669 C46.4596082,29.4913671 45.8753097,28.9009262 45.8766009,28.1808288 L45.8801519,26.2509289 C45.8814432,25.5305065 46.4680014,24.9420154 47.1833636,24.9433152 L47.4864886,24.9439651 C48.2021736,24.945265 48.7867949,25.5357058 48.7855036,26.2561281 L48.7819526,28.1860281 C48.7806614,28.9064504 48.1941031,29.4946166 47.4784182,29.4933168" id="Fill-24" fill="#F9BFB2"></path>
                            <path d="M38.7559067,38.5761949 C34.1396257,38.5677461 30.3694476,34.7589639 30.3778409,30.1121261 L30.3888167,23.938006 C30.3926905,21.7933117 32.1391296,20.0418113 34.2697209,20.0457107 L43.3085929,20.0619584 C45.4391841,20.0658578 47.179167,21.8238573 47.1752932,23.9685516 L47.1643174,30.1426718 C47.1559241,34.7895095 43.3721878,38.5846437 38.7559067,38.5761949" id="Fill-26" fill="#F9BFB2"></path>
                            <path d="M15.9539964,97.8903168 L56.7293162,96.7757256 L51.6614144,42.4990358 L41.8174372,42.266044 L40.395429,42.9205007 C38.3326293,43.8696905 35.9525006,43.8225722 33.9284389,42.7927939 L32.4108769,42.020704 L26.3590293,41.8627765 L17.451221,37.887618 L11.296072,49.8995311 L21.6032914,55.3996973 C19.2925683,69.2095792 16.0682736,88.8842253 16.0643998,91.1774234 C16.0579434,94.751914 15.9539964,97.8903168 15.9539964,97.8903168" id="Fill-28" fill="#7ABC31"></path>
                            <path d="M60.0140423,113.641829 L38.6474403,116.155346 C37.8219976,116.252182 37.0678974,115.651993 36.9713752,114.821086 L35.298861,100.413615 C35.2023388,99.5827081 35.7989043,98.8232913 36.624347,98.7264551 L57.9906263,96.2129383 C58.816069,96.1157772 59.570492,96.7162916 59.6670142,97.5471982 L61.3395283,111.954345 C61.4360506,112.785252 60.839485,113.544668 60.0140423,113.641829" id="Fill-30" fill="#000000"></path>
                            <polygon id="Fill-32" fill="#1FADE5" points="59.4901106 112.821484 38.9696115 115.23524 37.1482788 99.5468007 57.6687779 97.1327197"></polygon>
                            <path d="M60.1826173,104.788531 C60.2239378,105.145005 59.9705266,105.467684 59.6163965,105.509603 C59.2622664,105.551197 58.9413865,105.295784 58.9000659,104.93931 C58.8587454,104.582835 59.1121566,104.260156 59.4662867,104.218562 C59.8204168,104.176643 60.1412967,104.432057 60.1826173,104.788531" id="Fill-34" fill="#1B2226"></path>
                            <polygon id="Fill-36" fill="#2FBEEA" points="39.8856043 99.2246416 54.6357521 113.392622 59.4899492 112.821354 58.5612051 104.821319 47.5127982 98.3274445"></polygon>
                            <g id="Group-40" transform="translate(46.808444, 63.293830)">
                                <polygon id="Clip-39" points="0.202987239 0.253268906 15.486493 0.253268906 15.486493 53.4943379 0.202987239 53.4943379"></polygon>
                                <path d="M2.55083423,2.92276347 L4.79699391,10.4009227 L4.95402235,46.142579 L2.82536801,48.8874629 C2.73691619,49.0011966 2.68881648,49.1415766 2.68849366,49.286181 C2.68784803,49.7021218 3.02099502,50.0387738 3.43290933,50.0394237 L4.98727249,49.3410982 C5.23358175,49.230614 5.49764594,49.4541821 5.43211412,49.7173946 L5.10865163,51.0097354 C5.00954685,51.4048791 4.67704549,51.6963625 4.27449287,51.7405563 L2.0380177,51.9865462 L2.31693146,52.3625176 C2.75467112,52.9516587 3.41967384,53.3269802 4.14730303,53.3948955 L5.10865163,53.4845827 C5.98961883,53.566796 6.83701307,53.1242091 7.27733526,52.3517941 L7.53752565,51.8955592 C7.74477407,51.531611 7.90134025,51.1410167 8.00205911,50.7338497 L15.1978302,14.3507348 C15.5739118,12.8361257 15.5829507,11.2526263 15.2243012,9.7337928 L12.9862119,0.253268906 L2.55083423,2.92276347 Z" id="Fill-38" fill="#FAC1B9"></path>
                            </g>
                            <path d="M37.0006546,192.601319 L26.7231344,192.582797 C26.4422837,192.582147 26.2130838,192.350455 26.2134066,192.067745 L26.2205086,188.221268 C26.2208314,187.938559 26.4509998,187.707842 26.7318505,187.708491 L37.0093707,187.727014 C37.2902214,187.727664 37.5194213,187.959031 37.5190985,188.24174 L37.5119965,192.088542 C37.5116737,192.370927 37.2815053,192.601969 37.0006546,192.601319" id="Fill-41" fill="#C3A891"></path>
                            <path d="M51.8501977,192.62829 L41.5726775,192.609768 C41.2918268,192.609118 41.0626269,192.377426 41.0629497,192.094716 L41.0700516,188.24824 C41.0703745,187.96553 41.3005429,187.734813 41.5813935,187.735463 L51.8589138,187.753985 C52.1397644,187.754635 52.3689644,187.986002 52.3686416,188.268712 L52.3615396,192.115513 C52.3612168,192.397898 52.1310484,192.62894 51.8501977,192.62829" id="Fill-43" fill="#C3A891"></path>
                            <path d="M29.4366361,194.862217 L34.7653739,195.169948 C35.0397682,195.185871 35.258638,195.406189 35.2741333,195.682075 L35.5595034,200.722432 L15.2223643,200.685712 L15.43962,200.14109 C15.7124003,199.458362 16.2766841,198.936486 16.974937,198.720067 L29.4366361,194.862217 Z" id="Fill-45" fill="#996459"></path>
                            <path d="M35.3958998,202.022052 L15.3812547,201.985657 C14.9373815,201.985007 14.5748582,201.618784 14.5758267,201.171973 C14.5764723,200.725161 14.9402869,200.360238 15.3841601,200.360888 L35.3988051,200.397283 C35.8426783,200.398258 36.2052016,200.764481 36.204556,201.211292 C36.2035875,201.658103 35.839773,202.022701 35.3958998,202.022052" id="Fill-47" fill="#FFFFFF"></path>
                            <path d="M27.8797872,196.786593 C27.99471,196.922748 28.1996987,196.939321 28.334959,196.823637 C28.4702192,196.707629 28.4866829,196.501608 28.3714373,196.365453 L27.5853782,195.435435 L26.9132735,195.643406 L27.8797872,196.786593 Z" id="Fill-49" fill="#FFFFFF"></path>
                            <path d="M26.5879387,197.109174 C26.7028615,197.24533 26.9078502,197.261902 27.0431105,197.145894 C27.1783707,197.03021 27.1948344,196.82419 27.0795888,196.688034 L26.3451804,195.819108 L25.6733986,196.027403 L26.5879387,197.109174 Z" id="Fill-51" fill="#FFFFFF"></path>
                            <path d="M25.2960902,197.431788 C25.411013,197.567944 25.6160017,197.584516 25.751262,197.468833 C25.8865222,197.352824 25.9029859,197.146804 25.7877403,197.010648 L25.1053055,196.203138 L24.4332008,196.411109 L25.2960902,197.431788 Z" id="Fill-53" fill="#FFFFFF"></path>
                            <path d="M44.2861791,194.889221 L49.614917,195.196952 C49.8893113,195.212874 50.1081811,195.433193 50.1236763,195.709079 L50.4090464,200.749435 L30.0719073,200.712716 L30.2891631,200.168093 C30.5619433,199.485366 31.1262272,198.96349 31.8244801,198.747071 L44.2861791,194.889221 Z" id="Fill-55" fill="#AD7367"></path>
                            <g id="Group-59" transform="translate(29.376334, 200.099333)">
                                <mask id="mask-15" fill="white">
                                    <use xlink:href="#path-14"></use>
                                </mask>
                                <g id="Clip-58"></g>
                                <path d="M20.869109,1.94972214 L0.854463935,1.91332732 C0.410590759,1.91267742 0.0480674298,1.54645461 0.0490358804,1.09964329 C0.0496815141,0.652831962 0.41349611,0.287908969 0.857369287,0.288558876 L20.8720143,0.32495369 C21.3158875,0.325603597 21.6784108,0.692151359 21.6777652,1.13896268 C21.6767968,1.58577401 21.3129822,1.95037204 20.869109,1.94972214" id="Fill-57" fill="#FFFFFF" mask="url(#mask-15)"></path>
                            </g>
                            <path d="M42.7293303,196.813564 C42.8442531,196.949719 43.0492418,196.966292 43.1845021,196.850609 C43.3197623,196.7346 43.336226,196.528579 43.2209804,196.392424 L42.4349213,195.462406 L41.7628166,195.670377 L42.7293303,196.813564 Z" id="Fill-60" fill="#FFFFFF"></path>
                            <path d="M41.4374818,197.136178 C41.5524046,197.272333 41.7573933,197.288906 41.8926536,197.173223 C42.0279138,197.057214 42.0443775,196.851193 41.9291319,196.715038 L41.1947235,195.846112 L40.5229416,196.054407 L41.4374818,197.136178 Z" id="Fill-62" fill="#FFFFFF"></path>
                            <path d="M40.1456333,197.458792 C40.2605561,197.594947 40.4655448,197.61152 40.6008051,197.495837 C40.7360653,197.379828 40.752529,197.173807 40.6372834,197.037652 L39.9548485,196.230142 L39.2827438,196.438112 L40.1456333,197.458792 Z" id="Fill-64" fill="#FFFFFF"></path>
                            <polygon id="Fill-66" fill="#1D1F22" points="36.5152349 10.1547053 37.7461356 12.2279099 39.39347 11.4025275"></polygon>
                            <path d="M39.397247,9.33150013 L37.7466844,11.8138214 C37.7466844,11.8138214 39.802705,12.6460278 39.8036734,12.2317118 C39.804319,11.8177208 39.397247,9.33150013 39.397247,9.33150013" id="Fill-68" fill="#1D1F22"></path>
                            <path d="M60.6630979,63.3125471 L58.4256543,48.3961979 C57.5647017,44.3778205 53.5940544,41.799313 49.602424,42.6659645 C45.6104707,43.532616 43.048919,47.5292214 43.9098715,51.5475988 L48.7130635,66.5403121 L60.6630979,63.3125471 Z" id="Fill-70" fill="#8DCE55"></path>
                            <path d="M46.6012602,20.0680675 L46.5379881,19.4181601 L31.3097486,19.3902141 L28.7824154,19.7106185 L28.7788644,21.7009598 L28.774345,24.2193509 C28.7730537,24.9566708 29.1036182,25.5604348 29.5087533,25.5610847 L31.0721554,25.5640093 L31.8091463,25.5653091 L31.811406,24.2248751 C31.8130201,23.3500998 32.2042741,22.6413758 32.6852712,22.6423507 L33.371257,22.6436505 L33.3709342,22.6436505 L33.6043308,20.6942533 L34.5195166,22.6459251 L45.24091,22.6654224 C45.7754947,22.6663972 46.2083921,23.1034599 46.2074237,23.6419082 L46.2038727,25.5916303 L48.1407738,25.5952048 L48.1507811,20.0709921 L46.6012602,20.0680675 Z" id="Fill-72" fill="#1D1F22"></path>
                            <path d="M47.4784182,29.4933168 L47.1752932,29.4926669 C46.4596082,29.4913671 45.8753097,28.9009262 45.8766009,28.1808288 L45.8801519,26.2509289 C45.8814432,25.5305065 46.4680014,24.9420154 47.1833636,24.9433152 L47.4864886,24.9439651 C48.2021736,24.945265 48.7867949,25.5357058 48.7855036,26.2561281 L48.7819526,28.1860281 C48.7806614,28.9064504 48.1941031,29.4946166 47.4784182,29.4933168" id="Fill-74" fill="#F9BFB2"></path>
                            <path d="M30.691974,29.4628361 L30.3888489,29.4621862 C29.673164,29.4608864 29.0888655,28.8704456 29.0901567,28.1503482 L29.0937077,26.2204482 C29.094999,25.5000259 29.6815572,24.9115348 30.3969194,24.9128346 L30.7000444,24.9134845 C31.4157294,24.9147843 32.0003507,25.5052252 31.9990594,26.2256475 L31.9955084,28.1555474 C31.9942172,28.8759698 31.4076589,29.464136 30.691974,29.4628361" id="Fill-76" fill="#F9BFB2"></path>
                            <path d="M33.2561405,26.3873769 C33.1615552,26.3873769 33.0663242,26.3594309 32.9827147,26.3015892 C32.7625536,26.1488609 32.7070291,25.8453542 32.8584302,25.6234108 C33.7429483,24.3313949 35.5071425,24.0035167 36.7909851,24.8935648 C37.0111462,25.0462931 37.0666707,25.3494748 36.9152696,25.5714182 C36.7635457,25.7936865 36.4623575,25.8489287 36.2415508,25.6965254 C35.3977076,25.1112838 34.2375038,25.3267281 33.6561106,26.176482 C33.5621709,26.3139374 33.410447,26.3877019 33.2561405,26.3873769" id="Fill-78" fill="#1D1F22"></path>
                            <path d="M44.2769789,26.4074266 C44.1226724,26.4071016 43.9712713,26.3330122 43.8776544,26.1949069 C43.2994894,25.3425533 42.1399313,25.1235345 41.2941511,25.7058516 C41.0736672,25.85728 40.7721563,25.801063 40.621078,25.5781448 C40.4699997,25.3558764 40.5268154,25.0526946 40.7476222,24.9006163 C42.0353386,24.0151175 43.7979186,24.3498198 44.6775946,25.6450852 C44.8280272,25.8673535 44.7715343,26.1705353 44.5507276,26.3226137 C44.4667952,26.3801305 44.3715642,26.4077515 44.2769789,26.4074266" id="Fill-80" fill="#1D1F22"></path>
                            <path d="M39.0751726,32.1499107 L38.4372865,32.1486109 C37.9223936,32.147961 37.5017633,31.7229215 37.5027317,31.2042955 L37.5062827,29.1180928 C37.5072511,28.5994667 37.9294956,28.176052 38.4443885,28.1770269 L39.0822746,28.1783267 C39.5974903,28.1793016 40.0181206,28.604341 40.0171522,29.1226421 L40.0132784,31.2088448 C40.0123099,31.7274709 39.5903883,32.1508856 39.0751726,32.1499107" id="Fill-82" fill="#E39E8F"></path>
                            <path d="M40.0846855,31.4296183 L37.4304853,31.424744 C37.2726278,31.4244191 37.1438239,31.2941127 37.1441467,31.1355353 L37.1441467,30.9909309 C37.1444696,30.8320285 37.2739191,30.702372 37.4317766,30.7026969 L40.0859767,30.7075712 C40.2438342,30.7078962 40.3726381,30.8378777 40.3723153,30.99678 L40.3719925,31.1413844 C40.3719925,31.3002868 40.2425429,31.4299433 40.0846855,31.4296183" id="Fill-84" fill="#E39E8F"></path>
                            <path d="M36.2660849,33.4721148 L41.0770245,33.2745429 C41.3230109,33.2644694 41.4934582,33.519233 41.3911253,33.7450759 L41.3908025,33.7457258 C40.9708177,34.6747684 40.1153531,35.3292251 39.1136524,35.4878025 C37.9783055,35.6675019 36.8400533,35.182671 36.1776331,34.2370557 L36.0094455,33.9962651 C35.8583672,33.7808208 36.0046032,33.4828382 36.2660849,33.4721148" id="Fill-86" fill="#FFFFFF"></path>
                            <path d="M36.0163861,27.6763707 C36.0163861,28.1251318 35.655154,28.488755 35.2093439,28.488755 C34.7635338,28.488755 34.4023018,28.1251318 34.4023018,27.6763707 C34.4023018,27.2276097 34.7635338,26.8639865 35.2093439,26.8639865 C35.655154,26.8639865 36.0163861,27.2276097 36.0163861,27.6763707" id="Fill-88" fill="#1D1F22"></path>
                            <path d="M42.6341316,27.6763707 C42.6341316,28.1251318 42.2728995,28.488755 41.8270895,28.488755 C41.3812794,28.488755 41.0200473,28.1251318 41.0200473,27.6763707 C41.0200473,27.2276097 41.3812794,26.8639865 41.8270895,26.8639865 C42.2728995,26.8639865 42.6341316,27.2276097 42.6341316,27.6763707" id="Fill-90" fill="#1D1F22"></path>
                        </g>
                    </g>
                </g>
            </g>
        </g>
    </g>
</svg>