<?xml version="1.0" encoding="UTF-8" standalone="no"?>
<svg width="74px" height="24px" viewBox="0 0 74 24" version="1.1" xmlns="http://www.w3.org/2000/svg" xmlns:xlink="http://www.w3.org/1999/xlink">
    <!-- Generator: Sketch 43.1 (39012) - http://www.bohemiancoding.com/sketch -->
    <title>Logo Pukka</title>
    <desc>Created with Sketch.</desc>
    <defs></defs>
    <g id="Page-1" stroke="none" stroke-width="1" fill="none" fill-rule="evenodd">
        <g id="WEB---1440px---15&quot;-✅" transform="translate(-281.000000, -23.000000)" fill="#FFFFFF">
            <g id="Header-navigation" transform="translate(281.000000, 16.000000)">
                <path d="M74,24.1019626 C74,25.1800151 73.1587751,26.0527243 72.1196149,26.0527243 C71.0804548,26.0527243 70.2392299,25.1800151 70.2392299,24.1019626 C69.3485212,25.198553 68.1114257,26.148266 66.1073311,26.148266 C62.9651087,26.148266 60.0703054,23.6328101 60.0703054,19.038253 L60.0703054,18.9869172 C60.0703054,14.39236 63.0145925,11.8769042 66.1073311,11.8769042 C68.0619419,11.8769042 69.3237793,12.8266171 70.2392299,14.110013 L70.2392299,13.9303375 C70.2392299,12.852285 71.0804548,11.9795759 72.1196149,11.9795759 C73.1587751,11.9795759 74,12.852285 74,13.9303375 L74,24.1019626 Z M70.2608996,19.038253 L70.2608996,18.9869172 C70.2608996,16.7024726 68.6544541,15.1880655 66.7212739,15.1880655 C64.7880937,15.1880655 63.1544203,16.7024726 63.1544203,18.9869172 L63.1544203,19.038253 C63.1544203,21.3483655 64.7880937,22.8371047 66.7212739,22.8371047 C68.6544541,22.8371047 70.2608996,21.3226976 70.2608996,19.038253 Z M0,29.0492383 L9.97016114e-16,13.9303375 C9.97016114e-16,12.852285 0.862502336,11.9795759 1.9279464,11.9795759 C2.99339046,11.9795759 3.8558928,12.852285 3.8558928,13.9303375 L3.8558928,14.110013 C4.79449828,12.8266171 6.08825178,11.8769042 8.09230133,11.8769042 C11.2632658,11.8769042 14.282024,14.39236 14.282024,19.038253 C14.282024,23.6328101 11.3140012,26.148266 8.09230133,26.148266 C6.03751635,26.148266 4.76913056,25.198553 3.8558928,24.0948326 L3.8558928,29.0492383 C3.8558928,30.1272908 2.99339046,31 1.9279464,31 C0.862502336,31 0,30.1272908 0,29.0492383 Z M29.2932539,13.9303375 L29.2932539,24.0948326 C29.2932539,25.1728851 28.4307516,26.0455943 27.3653075,26.0455943 C26.2998635,26.0455943 25.4373611,25.1728851 25.4373611,24.0948326 L25.4373611,23.9408251 C24.5494911,25.0958814 23.4079439,26.148266 21.4546298,26.148266 C18.5373425,26.148266 16.8377055,24.1975043 16.8377055,21.0403505 L16.8377055,13.9303375 C16.8377055,12.852285 17.7002078,11.9795759 18.7656519,11.9795759 C19.831096,11.9795759 20.6935983,12.852285 20.6935983,13.9303375 L20.6935983,19.8082905 C20.6935983,21.6563805 21.5561006,22.6060934 23.0274281,22.6060934 C24.4987557,22.6060934 25.4373611,21.6563805 25.4373611,19.8082905 L25.4373611,13.9303375 C25.4373611,12.852285 26.2998635,11.9795759 27.3653075,11.9795759 C28.4307516,11.9795759 29.2932539,12.852285 29.2932539,13.9303375 Z M32.2421033,24.0948326 L32.2421033,8.95076168 C32.2421033,7.87270917 33.1046056,7 34.1700497,7 C35.2354938,7 36.0979961,7.87270917 36.0979961,8.95076168 L36.0979961,17.4725101 L40.9178621,12.852285 C41.4759518,12.3132588 41.9325707,11.9795759 42.617499,11.9795759 C43.6575754,11.9795759 44.317136,12.8266171 44.317136,13.7249942 C44.317136,14.39236 43.961988,14.9057184 43.4292659,15.4190767 L40.3851401,18.0628722 L44.0127234,23.0167801 C44.3425037,23.4788026 44.49471,23.8381534 44.49471,24.274508 C44.49471,25.3268926 43.6575754,26.0455943 42.6936022,26.0455943 C41.9325707,26.0455943 41.4759518,25.7889151 41.019333,25.1472172 L37.6454268,20.4499884 L36.0979961,21.8617238 L36.0979961,24.0948326 C36.0979961,25.1728851 35.2354938,26.0455943 34.1700497,26.0455943 C33.1046056,26.0455943 32.2421033,25.1728851 32.2421033,24.0948326 Z M46.7917001,24.0948326 L46.7917001,8.95076168 C46.7917001,7.87270917 47.6542024,7 48.7196465,7 C49.7850906,7 50.6475929,7.87270917 50.6475929,8.95076168 L50.6475929,17.4725101 L55.4674589,12.852285 C56.0255486,12.3132588 56.4821675,11.9795759 57.1670959,11.9795759 C58.2071722,11.9795759 58.8667328,12.8266171 58.8667328,13.7249942 C58.8667328,14.39236 58.5115848,14.9057184 57.9788628,15.4190767 L54.9347369,18.0628722 L58.5623202,23.0167801 C58.8921005,23.4788026 59.0443068,23.8381534 59.0443068,24.274508 C59.0443068,25.3268926 58.2071722,26.0455943 57.243199,26.0455943 C56.4821675,26.0455943 56.0255486,25.7889151 55.5689298,25.1472172 L52.1950236,20.4499884 L50.6475929,21.8617238 L50.6475929,24.0948326 C50.6475929,25.1728851 49.7850906,26.0455943 48.7196465,26.0455943 C47.6542024,26.0455943 46.7917001,25.1728851 46.7917001,24.0948326 Z M3.80515736,19.038253 C3.80515736,21.3226976 5.4538159,22.8371047 7.43779482,22.8371047 C9.42177374,22.8371047 11.0983756,21.3483655 11.0983756,19.038253 L11.0983756,18.9869172 C11.0983756,16.7024726 9.42177374,15.1880655 7.43779482,15.1880655 C5.4538159,15.1880655 3.80515736,16.7024726 3.80515736,18.9869172 L3.80515736,19.038253 Z" id="Logo-Pukka"></path>
            </g>
        </g>
    </g>
</svg>