<?xml version="1.0" encoding="UTF-8" standalone="no"?>
<svg width="79px" height="14px" viewBox="0 0 79 14" version="1.1" xmlns="http://www.w3.org/2000/svg" xmlns:xlink="http://www.w3.org/1999/xlink">
    <!-- Generator: Sketch 48.2 (47327) - http://www.bohemiancoding.com/sketch -->
    <title>L_Oreal Copy 2</title>
    <desc>Created with Sketch.</desc>
    <defs></defs>
    <g id="Home-Page---1440px" stroke="none" stroke-width="1" fill="none" fill-rule="evenodd" transform="translate(-202.000000, -517.000000)">
        <g id="Group-2" transform="translate(202.000000, 508.000000)" fill="#FFFFFF">
            <g id="L_Oreal-Copy-2" transform="translate(0.000000, 9.000000)">
                <polyline id="Fill-2" points="10.5333333 11.3035139 10.5333333 12.962963 0 12.962963 0 1.55555556 1.89630524 1.55555556 1.89630524 11.3035139 10.5333333 11.3035139"></polyline>
                <polyline id="Fill-3" points="8.89129553 5.7037037 11.06 2.07407407 8.9999708 2.07407407 7.37333333 5.7037037 8.89129553 5.7037037"></polyline>
                <path d="M25.8283608,3.48569212 C25.1584814,2.42711783 24.1796508,1.53647838 23.027425,0.929907797 C21.8751992,0.323337212 20.5495781,0 19.2235412,0 C17.8975044,0 16.5714675,0.323337212 15.4192417,0.929907797 C14.2670159,1.53647838 13.2886011,2.42711783 12.6187217,3.48569212 C11.9484265,4.54468415 11.5866667,5.77202876 11.5866667,6.99979113 C11.5866667,8.22755349 11.9484265,9.4548981 12.6187217,10.5138901 C13.2886011,11.5728822 14.2670159,12.4631039 15.4192417,13.0696745 C16.5714675,13.6766628 17.8975044,14 19.2235412,14 C20.5495781,14 21.8751992,13.6766628 23.027425,13.0696745 C24.1796508,12.4631039 25.1584814,11.5728822 25.8283608,10.5138901 C26.498656,9.4548981 26.86,8.22755349 26.86,6.99979113 C26.86,5.77202876 26.498656,4.54468415 25.8283608,3.48569212 Z M24.2208166,9.79494525 C23.7205901,10.6254289 22.9891699,11.3259929 22.1263519,11.803897 C21.2631182,12.2818011 20.2684866,12.5370453 19.2734391,12.5370453 C18.2783917,12.5370453 17.2837601,12.2818011 16.4205263,11.803897 C15.5572926,11.3259929 14.8262882,10.6254289 14.3260617,9.79494525 C13.8258352,8.96446155 13.5572182,8.00322263 13.5572182,7.04240146 C13.5572182,6.08116253 13.8258352,5.12034136 14.3260617,4.28985767 C14.8262882,3.45895623 15.5572926,2.75881001 16.4205263,2.28090592 C17.2837601,1.80258407 18.2783917,1.54775759 19.2734391,1.54775759 C20.2684866,1.54775759 21.2631182,1.80258407 22.1263519,2.28090592 C22.9891699,2.75881001 23.7205901,3.45895623 24.2208166,4.28985767 C24.7206273,5.12034136 24.9896601,6.08116253 24.9896601,7.04240146 C24.9896601,8.00322263 24.7206273,8.96446155 24.2208166,9.79494525 Z" id="Fill-4"></path>
                <path d="M40.1419007,6.47503914 C39.8027223,7.21813832 39.1592501,7.64771644 38.6561565,7.90738369 C38.1530629,8.1674684 37.790348,8.25764224 37.4251113,8.24428315 L41.08,12.962963 L38.9915522,12.962963 L35.456868,8.4 L30.8462276,8.4 L30.8462276,12.962963 L28.9666667,12.962963 L28.9666667,1.55555556 L36.4853308,1.55555556 C37.2448046,1.55555556 38.0160466,1.70459286 38.6956643,2.08449188 C39.3757022,2.46439091 39.9641157,3.04133645 40.2406701,3.85832808 C40.5172245,4.67531971 40.4814994,5.73193995 40.1419007,6.47503914 Z M38.0395832,6.39697198 C38.4359217,6.06424723 38.6700263,5.5177771 38.6494318,4.97589916 C38.6292576,4.43402121 38.3543844,3.89673545 37.9609879,3.56943784 C37.5675915,3.24214022 37.0649182,3.21500457 36.5895641,3.21500457 L30.8462276,3.21500457 L30.8462276,6.74096845 L36.5895641,6.74096845 C37.0972809,6.74096845 37.6436649,6.72969672 38.0395832,6.39697198 Z" id="Fill-5"></path>
                <polyline id="Fill-6" points="51.5077668 6.42995222 51.5077668 7.98503338 45.0826243 7.98503338 45.0826243 11.3035139 53.72 11.3035139 53.72 12.962963 43.1866667 12.962963 43.1866667 1.55555556 53.72 1.55555556 53.72 3.21500457 45.0826243 3.21500457 45.0826243 6.42995222 51.5077668 6.42995222"></polyline>
                <polyline id="Fill-7" points="51.6133333 0 48.6196844 0 47.4 1.55555556 51.6133333 0"></polyline>
                <path d="M57.1172593,10.0590315 L55.615987,12.962963 L53.72,12.962963 L59.6186732,1.55555556 L61.5146601,1.55555556 L67.4133333,12.962963 L65.5173464,12.962963 L64.0160741,10.0590315 L57.1172593,10.0590315 Z M60.5666667,3.38909017 L57.8681074,8.60748331 L63.2652259,8.60748331 L60.5666667,3.38909017 Z" id="Fill-8"></path>
                <polyline id="Fill-9" points="79 11.3035139 79 12.962963 68.4666667 12.962963 68.4666667 1.55555556 70.362548 1.55555556 70.362548 11.3035139 79 11.3035139"></polyline>
            </g>
        </g>
    </g>
</svg>