<?xml version="1.0" encoding="UTF-8" standalone="no"?>
<svg width="100px" height="17px" viewBox="0 0 100 17" version="1.1" xmlns="http://www.w3.org/2000/svg" xmlns:xlink="http://www.w3.org/1999/xlink">
    <!-- Generator: Sketch 48.2 (47327) - http://www.bohemiancoding.com/sketch -->
    <title>Mazars</title>
    <desc>Created with Sketch.</desc>
    <defs></defs>
    <g id="Home-Page---1440px" stroke="none" stroke-width="1" fill="none" fill-rule="evenodd" transform="translate(-329.000000, -516.000000)">
        <g id="Group-2" transform="translate(202.000000, 508.000000)">
            <g id="Mazars" transform="translate(127.000000, 8.000000)">
                <polygon id="Fill-2" fill="#FFFFFE" points="0.278443114 16.439 31.311976 16.439 31.311976 0.102 0.278443114 0.102"></polygon>
                <polygon id="Fill-3" fill="#AA2B32" points="0.875449102 15.8294286 15.7784431 15.8294286 15.7784431 0.704892857 0.875449102 0.704892857"></polygon>
                <polygon id="Fill-4" fill="#175880" points="15.7784431 15.8294286 30.6808383 15.8294286 30.6808383 0.704892857 15.7784431 0.704892857"></polygon>
                <path d="M19.248503,11.3074286 L19.5856287,11.6462143 L20.5365269,10.6838929 C20.4299401,10.5642857 20.3323353,10.4349643 20.2443114,10.3007857 L19.248503,11.3074286" id="Fill-5" fill="#ECAA34"></path>
                <path d="M19.9281437,11.9947143 L20.2676647,12.3353214 L21.2598802,11.3244286 C21.1263473,11.237 20.9994012,11.13925 20.8772455,11.0342143 L19.9281437,11.9947143" id="Fill-6" fill="#ECAA34"></path>
                <path d="M26.1994012,12.3274286 L26.5335329,11.9856071 L25.5862275,11.0245 C25.4664671,11.1313571 25.339521,11.2315357 25.2095808,11.3201786 L26.1994012,12.3274286" id="Fill-7" fill="#ECAA34"></path>
                <path d="M25.9269461,10.6772143 L26.8760479,11.6383214 L27.2131737,11.2983214 L26.2197605,10.2904643 C26.1305389,10.4270714 26.0317365,10.5545714 25.9269461,10.6772143" id="Fill-8" fill="#ECAA34"></path>
                <path d="M27.2041916,5.27485714 L26.8688623,4.93546429 L25.9239521,5.899 C26.0251497,6.01982143 26.1227545,6.14792857 26.211976,6.28392857 L27.2041916,5.27485714" id="Fill-9" fill="#ECAA34"></path>
                <path d="M26.5293413,4.58757143 L26.191018,4.24757143 L25.1976048,5.25725 C25.3329341,5.34710714 25.4586826,5.44485714 25.5778443,5.54928571 L26.5293413,4.58757143" id="Fill-10" fill="#ECAA34"></path>
                <path d="M20.2676647,4.24757143 L19.9281437,4.58757143 L20.8772455,5.54928571 C20.9994012,5.44485714 21.1263473,5.34710714 21.2598802,5.25725 L20.2676647,4.24757143" id="Fill-11" fill="#ECAA34"></path>
                <path d="M19.5856287,4.93546429 L19.248503,5.27485714 L20.2443114,6.28392857 C20.3323353,6.14792857 20.4299401,6.01982143 20.5365269,5.899 L19.5856287,4.93546429" id="Fill-12" fill="#ECAA34"></path>
                <path d="M19.6988024,7.70828571 L16.6371257,8.26928571 L19.6922156,8.85214286 C19.6646707,8.67060714 19.6479042,8.48057143 19.6479042,8.28992857 C19.6479042,8.09321429 19.6646707,7.8965 19.6988024,7.70828571" id="Fill-13" fill="#ECAA34"></path>
                <path d="M22.6526946,11.8745 L23.2035928,14.9848929 L23.7808383,11.8811786 C23.6011976,11.9085 23.4149701,11.9273214 23.2269461,11.9273214 C23.0341317,11.9273214 22.8377246,11.9072857 22.6526946,11.8745" id="Fill-14" fill="#ECAA34"></path>
                <path d="M26.7616766,8.85214286 L29.8209581,8.28992857 L26.7616766,7.70828571 C26.7904192,7.8965 26.8113772,8.09321429 26.8113772,8.28992857 C26.8113772,8.48057143 26.7904192,8.67060714 26.7616766,8.85214286" id="Fill-15" fill="#ECAA34"></path>
                <path d="M23.7808383,4.70414286 L23.2269461,1.60042857 L22.6526946,4.70778571 C22.839521,4.675 23.0341317,4.65678571 23.2269461,4.65678571 C23.4149701,4.65678571 23.6011976,4.675 23.7808383,4.70414286" id="Fill-16" fill="#ECAA34"></path>
                <path d="M40.4269461,10.1987857 L37.1437126,4.26760714 L36.7886228,4.26760714 L36.2449102,10.4701786 C36.1694611,11.3128929 36.042515,11.6735357 35.560479,11.7834286 L35.560479,12.0214286 C35.8808383,12.0214286 36.2047904,11.9801429 36.5275449,11.9801429 C36.8491018,11.9801429 37.1736527,12.0214286 37.4988024,12.0214286 L37.4988024,11.7834286 C37.0461078,11.6972143 36.8820359,11.3997143 36.8820359,10.8314286 C36.8820359,10.60375 36.9149701,10.2783214 36.9227545,10.1222857 L37.1113772,6.88014286 L37.1305389,6.88014286 L40.1868263,12.0560357 L42.6263473,6.99914286 L42.6467066,6.99914286 L42.9245509,10.2880357 C42.9449102,10.4392143 42.9700599,10.6808571 42.9700599,11.0293571 C42.9700599,11.3893929 42.8413174,11.7415357 42.4850299,11.7834286 L42.4850299,12.0214286 C42.8622754,12.0214286 43.2287425,11.9801429 43.6065868,11.9801429 C43.9838323,11.9801429 44.3520958,12.0214286 44.7257485,12.0214286 L44.7257485,11.7834286 C44.2844311,11.7615714 44.1652695,11.2679643 44.1209581,10.72275 L43.6377246,4.26760714 L43.311976,4.26760714 L40.4269461,10.1987857" id="Fill-17" fill="#FFFFFE"></path>
                <path d="M60.8778443,5.93725 C60.9191617,5.46914286 61.2652695,5.04475 61.7634731,5.04475 L65.394012,5.04475 L60.339521,11.9801429 L65.8131737,11.9801429 C66.2982036,11.9801429 66.6640719,12.002 66.988024,12.155 L67.2802395,10.6371429 L66.8844311,10.5916071 C66.6748503,11.1495714 66.2233533,11.3244286 64.5221557,11.3244286 C63.7491018,11.3244286 62.9712575,11.2807143 62.1922156,11.2679643 L67.4275449,4.44367857 L61.039521,4.44367857 C60.8580838,4.44367857 60.6754491,4.40967857 60.4718563,4.35382143 L60.4718563,5.90628571 L60.8778443,5.93725" id="Fill-18" fill="#FFFFFE"></path>
                <path d="M99.4766467,4.69382143 C98.8299401,4.35382143 98.0994012,4.26760714 97.3760479,4.26760714 C96.0065868,4.26760714 94.8550898,5.19592857 94.8550898,6.65003571 C94.8550898,9.50117857 98.5287425,8.38464286 98.5287425,10.3098929 C98.5287425,11.1495714 97.8814371,11.6972143 97.0736527,11.6972143 C96.3736527,11.6972143 95.6191617,11.2042143 95.4467066,10.4835357 L95.057485,10.4835357 L95.1658683,11.6522857 C95.5239521,11.8939286 96.3826347,12.155 97.0844311,12.155 C98.3550898,12.155 99.5754491,11.3456786 99.5754491,9.93710714 C99.5754491,6.9785 95.8988024,8.39557143 95.8988024,6.09085714 C95.8988024,5.32646429 96.5658683,4.72478571 97.3005988,4.72478571 C98.1071856,4.72478571 98.7748503,5.05507143 99.0634731,5.88503571 L99.4766467,5.88503571 L99.4766467,4.69382143" id="Fill-19" fill="#FFFFFE"></path>
                <path d="M53.560479,9.80717857 L53.9377246,10.8205 C54.0131737,11.0402857 54.0688623,11.2254643 54.0688623,11.3778571 C54.0688623,11.6298214 53.9377246,11.7834286 53.7131737,11.7834286 L53.7131737,12.0214286 C54.0766467,12.0214286 54.4341317,11.9801429 54.8011976,11.9801429 C55.1676647,11.9801429 55.5233533,12.0214286 55.8904192,12.0214286 L55.8904192,11.7834286 C55.5023952,11.7415357 55.405988,11.3778571 55.0257485,10.4064286 L52.6682635,4.26760714 L52.5383234,4.26760714 L50.2431138,10.1453571 C50.0389222,10.6705357 49.6311377,11.6972143 49.1952096,11.7834286 L49.1952096,12.0214286 C49.511976,12.0214286 49.8101796,11.9801429 50.1263473,11.9801429 C50.4365269,11.9801429 50.739521,12.0214286 51.051497,12.0214286 L51.051497,11.7834286 C50.7916168,11.7834286 50.660479,11.5757857 50.660479,11.3128929 C50.660479,11.1920714 50.6832335,10.9528571 50.739521,10.7664643 L51.0317365,9.80717857 L53.560479,9.80717857 Z M51.2341317,9.28139286 L52.2802395,6.41021429 L53.3682635,9.28139286 L51.2341317,9.28139286 Z" id="Fill-20" fill="#FFFFFE"></path>
                <path d="M75.9149701,9.80717857 L76.288024,10.8205 C76.3646707,11.0402857 76.4197605,11.2254643 76.4197605,11.3778571 C76.4197605,11.6298214 76.288024,11.7834286 76.0586826,11.7834286 L76.0586826,12.0214286 C76.4275449,12.0214286 76.7808383,11.9801429 77.1520958,11.9801429 C77.5173653,11.9801429 77.8688623,12.0214286 78.2359281,12.0214286 L78.2359281,11.7834286 C77.8491018,11.7415357 77.7520958,11.3778571 77.3724551,10.4064286 L75.0161677,4.26760714 L74.8838323,4.26760714 L72.5916168,10.1453571 C72.3862275,10.6705357 71.9802395,11.6972143 71.5473054,11.7834286 L71.5473054,12.0214286 C71.8610778,12.0214286 72.1598802,11.9801429 72.4724551,11.9801429 C72.788024,11.9801429 73.0868263,12.0214286 73.4005988,12.0214286 L73.4005988,11.7834286 C73.1407186,11.7834286 73.0125749,11.5757857 73.0125749,11.3128929 C73.0125749,11.1920714 73.0377246,10.9528571 73.0868263,10.7664643 L73.3766467,9.80717857 L75.9149701,9.80717857 Z M73.5832335,9.28139286 L74.6275449,6.41021429 L75.7155689,9.28139286 L73.5832335,9.28139286 Z" id="Fill-21" fill="#FFFFFE"></path>
                <path d="M85.1928144,5.09817857 C85.1928144,4.82435714 85.4928144,4.79217857 85.7766467,4.79217857 C86.9473054,4.79217857 87.4041916,5.68832143 87.4041916,6.69314286 C87.4041916,7.73075 86.5532934,8.40771429 85.5628743,8.40771429 C85.4299401,8.40771429 85.3017964,8.38464286 85.1383234,8.37432143 L85.1928144,5.09817857 Z M83.4473054,12.0214286 C83.8353293,12.0214286 84.2011976,11.9801429 84.591018,11.9801429 C84.9790419,11.9801429 85.3550898,12.0214286 85.7431138,12.0214286 L85.7431138,11.7834286 C85.1928144,11.6644286 85.1383234,11.3353571 85.1383234,10.8781786 L85.1383234,8.71614286 C85.397006,8.71614286 85.6233533,8.99967857 85.7844311,9.18303571 L87.5736527,11.3013571 C87.7035928,11.4567857 87.7371257,11.5539286 87.7371257,11.6522857 C87.7251497,11.7281786 87.6904192,11.7725 87.6197605,11.7834286 L87.6197605,12.0214286 C87.9742515,12.0214286 88.3263473,11.9801429 88.6862275,11.9801429 C89.0383234,11.9801429 89.4035928,12.0214286 89.7616766,12.0214286 L89.7616766,11.7834286 C89.4670659,11.7281786 89.1035928,11.3693571 88.9443114,11.1714286 L86.7658683,8.61414286 C87.7251497,8.37432143 88.7149701,7.66639286 88.7149701,6.55957143 C88.7149701,5.38110714 87.7694611,4.39935714 85.8299401,4.39935714 C85.0209581,4.39935714 84.6964072,4.44367857 84.3748503,4.44367857 C84.0305389,4.44367857 83.6772455,4.39935714 83.3323353,4.39935714 L83.3323353,4.63917857 C83.8790419,4.74664286 83.9347305,5.0235 83.9347305,5.53410714 C83.9347305,6.46425 83.9862275,7.4035 83.9862275,8.34275 L83.9862275,11.1495714 C83.9862275,11.5205357 83.8131737,11.6972143 83.4473054,11.7834286 L83.4473054,12.0214286 Z" id="Fill-22" fill="#FFFFFE"></path>
                <path d="M8.45868263,10.5011429 L11.4658683,4.25910714 L11.6497006,4.25910714 L11.9610778,10.7464286 C12.005988,11.628 12.0694611,11.7269643 12.5419162,11.8046786 L12.5419162,12.0001786 C12.2305389,12.0001786 11.908982,11.9576786 11.5305389,11.9576786 C11.2191617,11.9576786 10.8976048,12.0001786 10.6293413,12.0001786 L10.6293413,11.8046786 C11.0802395,11.7725 11.1646707,11.4567857 11.1646707,11.0645714 C11.1646707,10.6505 11.145509,10.3007857 11.1335329,10.1241071 L10.9185629,6.25539286 L10.8772455,6.25539286 L8.21437126,11.7615714 L5.11257485,6.24446429 L5.06227545,6.24446429 L4.85868263,9.66571429 C4.83592814,9.94985714 4.83592814,10.4531786 4.83592814,10.7342857 C4.83592814,11.4986786 5.13652695,11.7615714 5.4994012,11.8046786 L5.4994012,12.0001786 C5.20239521,12.0001786 4.88802395,11.9576786 4.56526946,11.9576786 C4.25508982,11.9576786 3.95688623,12.0001786 3.64371257,12.0001786 L3.64371257,11.8046786 C4.21137725,11.6735357 4.29700599,11.4883571 4.36467066,10.5381786 L4.77065868,4.25910714 L4.96526946,4.25910714 L8.45868263,10.5011429" id="Fill-23" fill="#ECAA34"></path>
            </g>
        </g>
    </g>
</svg>