<?xml version="1.0" encoding="UTF-8" standalone="no"?>
<svg width="33px" height="33px" viewBox="0 0 33 33" version="1.1" xmlns="http://www.w3.org/2000/svg" xmlns:xlink="http://www.w3.org/1999/xlink">
    <!-- Generator: Sketch 48.2 (47327) - http://www.bohemiancoding.com/sketch -->
    <title>Orange_logo Copy 2</title>
    <desc>Created with Sketch.</desc>
    <defs></defs>
    <g id="Home-Page---1440px" stroke="none" stroke-width="1" fill="none" fill-rule="evenodd" transform="translate(-586.000000, -508.000000)">
        <g id="Group-2" transform="translate(202.000000, 508.000000)" fill-rule="nonzero">
            <g id="Orange_logo-Copy-2" transform="translate(384.000000, 0.000000)">
                <polygon id="background" fill="#FF6600" points="33 33 0 33 0 0 33 0"></polygon>
                <path d="M3.72655692,30.3387097 C2.60688256,30.3387097 1.59677419,29.5867601 1.59677419,27.9435475 C1.59677419,26.3003367 2.60688256,25.5483871 3.72655692,25.5483871 C4.84623128,25.5483871 5.85483871,26.3003367 5.85483871,27.9435475 C5.85483871,29.5867591 4.84623128,30.3387097 3.72655692,30.3387097 M3.72655692,26.5583757 C2.88004709,26.5583757 2.72545399,27.3625675 2.72545399,27.9435475 C2.72545399,28.5245303 2.88004709,29.3303052 3.72655692,29.3303052 C4.57306675,29.3303052 4.72765984,28.5245303 4.72765984,27.9435475 C4.72765984,27.3625675 4.57306675,26.5583757 3.72655692,26.5583757" id="letter_o" fill="#FFFFFF"></path>
                <path d="M7.4516129,25.6449793 L8.641405,25.6449793 L8.641405,26.1967015 C8.86842662,25.8987385 9.42686661,25.5483871 9.9505079,25.5483871 C10.0002207,25.5483871 10.0615332,25.5483871 10.1129032,25.5549401 L10.1129032,26.7156837 L10.0515908,26.7156837 C9.50806417,26.7156837 8.91316807,26.7991786 8.72094544,27.2166539 L8.72094544,30.3387097 L7.4516129,30.3387097 L7.4516129,25.6449841 L7.4516129,25.6449793 Z" id="letter_r" fill="#FFFFFF"></path>
                <path d="M13.1351879,29.8779465 C12.6449064,30.1883547 12.1143276,30.3387097 11.5434513,30.3387097 C10.6451613,30.3387097 10.1129032,29.7631602 10.1129032,28.9903701 C10.1129032,27.9524405 11.1035413,27.4043745 13.145263,27.1828841 L13.145263,26.9242092 C13.145263,26.5879325 12.8799731,26.3906948 12.3896916,26.3906948 C11.8994091,26.3906948 11.5014757,26.5782334 11.2143584,26.9242092 L10.3597232,26.4553628 C10.8080291,25.850712 11.4914006,25.5483871 12.4098398,25.5483871 C13.6657678,25.5483871 14.3709677,26.0722024 14.3709677,26.9242092 C14.3709677,26.9242092 14.3692876,30.2756585 14.3709677,30.2837408 L13.2476842,30.2837408 L13.1351879,29.8779465 Z M11.3604353,28.9014504 C11.3604353,29.2134763 11.5636005,29.5044843 11.9313116,29.5044843 C12.329246,29.5044843 12.7171053,29.346048 13.1049656,29.0162377 L13.1049656,27.9184897 C11.9212375,28.0591436 11.3604353,28.3533843 11.3604353,28.9014513 L11.3604353,28.9014504 Z" id="letter_a" fill="#FFFFFF"></path>
                <path d="M14.9032258,25.77899 L15.93754,25.638338 L16.0517286,26.1944026 C16.6342543,25.7724485 17.0976271,25.5483871 17.6801527,25.5483871 C18.6565455,25.5483871 19.1612903,26.060293 19.1612903,27.0742893 L19.1612903,30.3387097 L17.9118391,30.3387097 L17.9118391,27.288539 C17.9118391,26.7144846 17.7612436,26.4560782 17.309455,26.4560782 C16.9371013,26.4560782 16.5647486,26.6228971 16.1394387,26.9761622 L16.1394387,30.3387097 L14.9032258,30.3387097 L14.9032258,25.77899 Z" id="letter_n" fill="#FFFFFF"></path>
                <path d="M22.342109,29.2030754 C23.2522781,29.1967629 23.3302477,28.2759791 23.3302477,27.6773949 C23.3302477,26.9666741 22.9817731,26.3933601 22.3341533,26.3933601 C21.9029359,26.3933601 21.4208015,26.7060762 21.4208015,27.7263558 C21.4208015,28.2838766 21.4605811,29.2109711 22.342109,29.2030754 Z M24.483871,25.6320989 L24.483871,29.9201132 C24.483871,30.6750564 24.423405,31.9243458 22.2514105,31.9354014 C21.3539703,31.9417231 20.5217699,31.5847791 20.3562845,30.8077247 L21.5401412,30.6181989 C21.5894687,30.8408915 21.7279034,31.0620046 22.3993923,31.0620046 C23.0215536,31.0620046 23.3206997,30.7666612 23.3206997,30.0590986 L23.3206997,29.5315865 L23.3047883,29.5157924 C23.1138434,29.8553591 22.8242443,30.1759727 22.127296,30.1759727 C21.0627798,30.1759727 20.2258065,29.4431407 20.2258065,27.9127226 C20.2258065,26.3980977 21.0898306,25.5499711 22.0588743,25.5483916 C22.9706347,25.5468112 23.3063796,25.9590305 23.3859397,26.1754051 L23.3700273,26.1738247 L23.4702737,25.632098 L24.483871,25.632098 L24.483871,25.6320989 Z" id="letter_g" fill="#FFFFFF"></path>
                <path d="M27.1788281,30.3387097 C25.8241355,30.3387097 25.016129,29.4654063 25.016129,27.9515748 C25.016129,26.4200841 25.8337545,25.5483871 27.1595902,25.5483871 C28.4854249,25.5483871 29.2741935,26.3943995 29.2741935,27.8905719 C29.2741935,27.9708384 29.2645737,28.0495005 29.2645737,28.1281616 L26.204091,28.1281616 C26.2121028,29.0014641 26.5744265,29.4413262 27.2862417,29.4413262 C27.7431496,29.4413262 28.0461525,29.256713 28.3299157,28.8521682 L29.2148756,29.3434005 C28.8253013,29.9967723 28.123105,30.3387087 27.1788281,30.3387087 L27.1788281,30.3387097 Z M28.0862316,27.3431521 C28.0862316,26.7283086 27.7335307,26.365503 27.1595902,26.365503 C26.6129032,26.365503 26.2714245,26.7202822 26.2233289,27.3431521 L28.0862316,27.3431521 Z" id="letter_e" fill="#FFFFFF"></path>
                <path d="M31.5507851,23.9516129 L31.103301,25.1626683 L30.647768,23.9516129 L30.2582313,23.9516129 L30.2582313,25.5483871 L30.5109476,25.5483871 L30.5109476,24.2160579 L30.5173811,24.2160579 L31.0179843,25.5483871 L31.1789495,25.5483871 L31.6763332,24.2160579 L31.6843774,24.2160579 L31.6843774,25.5483871 L31.9354839,25.5483871 L31.9354839,23.9516129 L31.5507757,23.9516129 L31.5507851,23.9516129 Z M28.7419355,23.9516129 L28.7419355,24.1638425 L29.2183938,24.1638425 L29.2183938,25.5483871 L29.4711092,25.5483871 L29.4711092,24.1638425 L29.9491773,24.1638425 L29.9491773,23.9516129 L28.7419355,23.9516129 Z" id="letter_TM" fill="#FFFFFF"></path>
            </g>
        </g>
    </g>
</svg>